<svg xmlns="http://www.w3.org/2000/svg" width="126" height="209" fill="none">
  <path fill="url(#a)" fill-rule="evenodd" d="m65.544 185.037.061.199c.725.042 1.344-.27 1.906-.766l-1.967.567ZM50.252 71.434a9.983 9.983 0 0 1-.17-.073l-.825 1.1h.995v-1.027ZM12.526 47.223l.52 1.275c.18-.39.396-.633.351-.812-.085-.337-.24-.765-.871-.463Zm65.949-8.988c.902.28 1.074.194 1.759-.853l-1.759.853ZM49.947 82.338c-.22.658-.22.658.552.961.329-.617.329-.617-.552-.96Zm9.961 3.7c-.04-.492.799-.94.04-1.539-.19.55-.61 1.002-.04 1.539Zm-7.595-65.053-.191.715c.54.13.98.243 1.425.34.07.016.153-.032.337-.077l-1.57-.978ZM90.03 68.442c-.847-.146-1.698-.182-2.407.785l2.407-.785Zm-12.064-46.44c1.101.328 2.27.244 2.686-.175-.975.062-1.83.118-2.686.175Zm-52.508-.127v1.57c.63-.173.646-.361 0-1.57ZM75.5 37.74l-.101-.168-1.942 1.031.114.214c.84.016 1.301-.692 1.93-1.077Zm-17.814 78.161c.21-.47.948-.553.903-1.232-.981.241-1.071.356-.903 1.232Zm18.317 66.564-.696-1.47-.556.966c.425.17.815.328 1.252.504Zm-22.213 6.574c-.03-.025-.06-.052-.088-.078l-1.742.725c.335.199.585.346.785.463.402-.425.723-.766 1.045-1.11ZM18.694 52.889a5.499 5.499 0 0 1-.056-.147c-.301.047-.614.061-.898.156a.74.74 0 0 0-.4.368c-.031.065.157.314.28.346.159.043.396.007.523-.093.216-.17.37-.415.55-.63Zm86.521-2.516c-.997.198-1.555.714-1.823 1.575l1.823-1.575Zm-15.365-4.13c.815-.22 1.04-.923 1.303-1.595-.749.272-1.01.948-1.303 1.595Zm6.393 146.049c.684.704 1.299.308 1.896-.019-.316-.064-.63-.123-.944-.193-.357-.085-.725-.23-.952.212ZM47.64 21.742c1.038.158 1.038.158 1.19-.587-.832-.177-1.02-.091-1.19.586Zm15.012 86.919c.031.082.065.165.097.247.227-.06.579-.053.657-.196.126-.227.097-.556.078-.837-.004-.084-.2-.154-.35-.26-.179.386-.33.716-.482 1.046Zm-2.33-10.432c.83-.192 1.713-.224 2.438-.753-.849.137-1.727.182-2.438.753ZM50.14 20.887c-.355.211-.556.664-.385.973.176.31.66.45 1.046.687-.244-.613-.444-1.118-.661-1.66Zm40.554 50.626c.692.088 1.294-.063 1.79-.704-.777-.074-1.327.195-1.79.704Zm19.295-23.55c.215-.43.423-.787.571-1.168.052-.137-.042-.33-.072-.496-.152.094-.364.154-.45.291-.182.297-.304.635-.475 1.009l.426.365ZM60.475 86.683c.173.112.3.174.404.268.096.09.168.208.253.32.482-1.08.47-1.148-.26-1.42-.12.252-.239.506-.397.832Zm35.846-23.778c-.73.09-1.197.599-1.807 1.12.975.068 1.386-.522 1.807-1.12ZM17.583 47.456c.998.487 1.367.321 1.937-.78l-1.937.78ZM43.35 205.569l.18-1.068-.689-.117-.387.973.896.212Zm39.193-6.318.125.19 1.944-.7-.587-.45-1.482.96ZM24.077 24.432c-.536.27-.992.5-1.45.729.27.156.492.127.706.16.904.146.902.152.744-.889ZM93.272 46.04c-.856.23-1.731 1.164-1.807 1.866l1.807-1.866Zm5.505 17.185c-.591.496-1.23.745-1.285 1.514.505.036 1.238-.761 1.285-1.514ZM54.486 83.84c-.28-.067-.503-.17-.716-.157-.165.01-.392.14-.448.276-.047.116.063.376.184.467.473.359.734.208.98-.586ZM77.41 59.663c-.867.056-1.595.168-2.204.818.754-.214 1.608.097 2.204-.818ZM23.985 44.224c.92.052 1.562-.355 2.086-1.086-.99-.106-1.404.763-2.086 1.086Zm35.277 38.553c-.234.51-.473.974-.648 1.46-.063.171.029.398.052.602.064-.005.13-.008.198-.011.213-.667 1.009-1.21.398-2.05Zm5.938 24.971c-.617.103-.765.283-.72.836.038.475.294.641.815.513l-.095-1.349Zm24.914 87.124.126.152 2.228-1.579a4.585 4.585 0 0 1-.103-.141c-.754.518-1.835.57-2.251 1.568ZM86.402 80.768l2.624-.825c-1.066-.275-1.55-.117-2.624.826Zm8.603-9.942.205.122c.435-.318.87-.635 1.29-.944-.064-.21-.13-.439-.26-.865l-1.235 1.687ZM52.22 72.11l.607-1.202c-.733.087-1.254.33-1.462 1.143.337.023.61.041.855.059ZM15.534 48.882c.033.064.059.14.072.14.656-.096 1.318-.176 1.89-.633-.978-.825-1.366.175-1.962.493Zm79.802 143.843-.515 1.472c.589-.418 1.122-.797 1.771-1.254l-1.256-.218ZM24.775 25.045c.662.504 1.184.177 1.683.14 1.235-.093 1.232-.108 1.52-.521-1.062.126-2.046.24-3.204.38Zm31.818 85.076c.74-.841.708-1.886 1.134-2.782-.53-.014-.698.423-1.134 2.782Zm37.31 83.526c-1.087.277-1.876 1.024-2.719 1.689.983-.439 1.96-.89 2.718-1.689Zm2.715-129.231c-.661.37-1.516.437-1.913 1.23.712-.296 1.576-.345 1.913-1.23Zm16.123-39.23 1.212-.067c.088-.158.246-.452.437-.803-.333-.1-.626-.19-.909-.273-.272.422-.504.778-.74 1.143Zm-5.671 27.54c-1.083.222-1.61.762-1.679 1.846l1.679-1.846Zm-86.578-30.25.02.202 1.15.143c.086.012.17.038.256.044.516.032.547-.001.66-.755-.717.126-1.402.247-2.086.365ZM98.325 65.61l.173.149c.612-.96 1.225-1.923 1.84-2.884-.064-.04-.125-.08-.187-.121-.758.853-1.342 1.819-1.826 2.856ZM76.171 193.422c.007-.062.016-.125.025-.189-.266-.13-.529-.264-.727-.363l-1.344.868c.027.07.055.139.079.21.657-.175 1.312-.349 1.967-.526ZM51.298 83.637c1.067.597 1.197.579 1.412-.226l-1.223-.393-.189.619Zm6.374 40.381.196-.018c-.118-1.232-.24-2.464-.362-3.697-.247 1.265-.233 2.506.166 3.715Zm13.565 63.975 2.034-.788c-1.059-.663-1.568.259-2.329.388l.295.4ZM56.274 73.995c-.368-.383-.636-.243-.954-.039-.537.346-.924.763-1.084 1.496.744-.534 1.384-.989 2.038-1.457Zm12.243 2.463.16.211 1.946-.497c-.014-.088-.025-.176-.04-.263-.588 0-1.183-.03-1.77.025-.112.009-.199.34-.296.524Zm9.036 21.794c.06.04.122.082.183.12l1.415-1.887c-1.221.328-1.48.647-1.598 1.767Zm38.359-73.089a7.539 7.539 0 0 0-.043-.256c-.245.012-.603-.072-.716.055-.322.372-.544.83-.808 1.254.075.063.146.126.219.188.679-.131.912-.811 1.348-1.241Zm-61.226 83.269-.216.033c.063.776.21 1.505 1.107 1.819.192-.638.369-1.245.551-1.85-.305.202-.44.479-.614.731-.086.122-.277.297-.358.271a.727.727 0 0 1-.394-.368c-.078-.189-.056-.422-.076-.636Zm28.216 81.417c.767-.501 1.384-.901 2.037-1.327-1.085-.427-1.281-.304-2.037 1.327ZM47.68 20.743c1.322.102 1.374.08 1.583-.74H47.85l-.17.74ZM39.99 206.01c.047-.768.087-1.465.141-2.318-.282.113-.596.144-.658.283-.123.293-.21.67-.132.963.099.352.385.656.649 1.072Zm80.736-196.64c1.191-.129 1.401-1.144 1.849-1.95-.973.316-1.236 1.289-1.849 1.95ZM89.573 63.542c-1.14.017-2.295-.005-3.108 1.19 1.146-.44 2.126-.815 3.108-1.19Zm-3.421 1.77.052.229c.32-.063.641-.116.958-.195.248-.061.487-.223.73-.22.378.005.7.063 1.001-.299.2-.24.572-.339.867-.502l-.088-.149-3.52 1.135Zm-33.407 7.685c-.182.865.107 1.109.934 1.478.113-.434.226-.86.334-1.267l-1.267-.21Zm21.995 9.875c-.241.734-.093 1.211.337 1.526.331.243.489.477.295.92.086-.006.17-.014.256-.021.102-.555.205-1.11.338-1.84l-.639.523-.587-1.108Zm-32.093-60.98c-1.32-.133-1.41-.108-1.537.424.668-.196.455.763.982.75.633-.196.38-.766.555-1.174ZM81.04 85.811c.657-.247 1.33-.343 1.826-.845.038-.038-.047-.198-.087-.333-.168.033-.305.067-.444.089-.14.021-.282.034-.423.053-.742.094-.742.094-.872 1.036ZM36.868 205.157c.384-1.844.384-1.844-.264-2.04-.1.492-.232.982-.286 1.477-.038.352.137.597.55.563ZM89.8 47.087a9.467 9.467 0 0 0-.146-.166c-.966.323-.957 1.428-1.49 2.134l.658-.09.978-1.878ZM74.39 60.06c-1.249-.087-1.84.9-2.602 1.629.966-.369 1.776-.992 2.602-1.629Zm31.949-9.893c1.148-.133 2.082-.72 2.856-1.61-.615.165-1.436.272-1.69.712-.314.539-.734.615-1.166.898ZM77.983 190.195c-1.61.112-2.219.54-2.294 1.615l2.294-1.615ZM93.064 69.214c.019.042.037.085.054.129.735-.21 1.469-.412 2.197-.63.399-.117.595-.375.53-.948-.989.514-1.882.982-2.78 1.449ZM29.245 22.666l1.065-.111.279-1.327-1.18.102-.164 1.336Zm23.914 49.477c.96-.28 1.955-1.029 2.161-1.63-.997.056-1.674.566-2.16 1.63Zm34.332.208c1.903-.187 2.406-.359 2.895-.944-1.198-.197-2.015.481-2.895.944Zm-7.308 120.298a2.14 2.14 0 0 1-.097-.105l-1.756 1.233c.999.656 1.173.603 1.562-.439.088-.233.192-.46.29-.689Zm36.62-182.327-2.701-1.157c-.007.296.063.602.234.677.772.34 1.518.847 2.467.48ZM70.125 37.658c-1.082-.037-1.857.524-2.553 1.242 1.195.297 1.724-.79 2.553-1.242Zm22.644 36.303c-.726-.04-1.158.137-1.6.61-.37.395-.999.543-1.586.838.753.322 1.188.116 3.186-1.448Zm1.946-6.787c1.074.084 2.14-.584 2.496-1.568-1.072.257-1.634 1.15-2.496 1.568ZM49.808 78.669l-.72 1.698c.224.121.41.22.61.325.297-.6.563-1.131.84-1.69l-.73-.333ZM24.516 21.956l-1.403.095c-.063.315-.111.578-.158.82.493.125.922.236 1.46.372l.101-1.287Zm13.944-1.53-.753-.072c-.329.534-.593.966-.921 1.505.505-.027.887-.044 1.254-.064.146-.479.27-.877.42-1.37Zm36.693 69.552c-.227-.315-.39-.544-.583-.814-.456.255-.89.495-1.339.742l.991.852c.26-.219.567-.473.931-.78Zm-13.33 10.805c-.027-.071-.051-.142-.078-.212-.925.233-1.961.243-2.44 1.354.62.531 1.08.266 1.593-.905l.926-.237Zm38.983-40.838c-1.236.394-1.144 1.815-2.013 2.501 1.42-.227 1.414-1.606 2.013-2.5Zm-18.73 135.748c.2-.673.365-1.222.547-1.827-.671.485-1.28.924-1.909 1.381.504.426.924.714 1.361.446Zm-52.083-.471.151.158c1.361-.495 2.525-1.363 3.76-2.101-1.273.467-2.505 1.021-3.727 1.595-.094.044-.124.23-.184.348ZM7.503 36.539c.915.948 2.12 1.206 3.178.687l-3.179-.687ZM67.55 205.913l.015.225c.82 0 1.637.004 2.456-.005a.835.835 0 0 0 .404-.104c.344-.215.67-.457 1.084-.743l-3.959.627Zm-26.197-184.6c.513.055.947.102 1.431.156.109-.49.194-.888.28-1.285-.941-.204-1.393.21-1.71 1.128ZM13.507 39.674c-.883-.319-1.665-.672-2.424.033.727.945.931.947 2.424-.033Zm55.988 50.99c-.192 1.329.333 2.006 1.339 1.803l-.313-1.14-.616.135c-.02-.043-.042-.087-.061-.132.203-.19.4-.383.754-.718l-1.103.052ZM48.417 77.57c-.109.11-.166.144-.187.193-.1.238-.182.48-.277.719-.245.636-.176.83.518 1.348.222-.563.441-1.11.67-1.696-.259-.2-.479-.372-.724-.564Zm35.495-40.657c-1.443-.224-1.9-.049-2.579.937.274.148.54.294.74.403l1.84-1.34ZM54.035 82.755c.563.265.94.178 1.139-.378.189-.526.358-1.059.554-1.649-.862.102-.862.102-1.693 2.027Zm25.917-19.323c.328-.143.696-.232.975-.443.385-.294.777-.396 1.259-.453.621-.074 1.301-.255 1.382-1.095-.565-.195-.565-.195-3.616 1.99Zm29.301-18.21c1.016.463 2.283-.206 2.623-1.348-.972.297-1.884.583-2.623 1.348Zm-86.795-1.01c-1.235.56-2.638.831-3.532 2 1.274-.495 2.707-.711 3.532-2Zm24.35 15.517h2.813c.012-.033.023-.065.031-.097l-.619-.26.52-.37c-.013-.039-.024-.076-.038-.115l-2.655.17-.052.672Zm27.148 39.099c-.047-.115-.092-.23-.137-.348l-3.36.926.942.53c.817-.353 1.686-.73 2.555-1.108ZM60.25 71.423c-.887-.345-1.87.354-2.442 1.775.962-.435 1.994-.696 2.443-1.775ZM33 20.964c-1.198-.002-1.346.064-1.587.77-.097.28-.293.612.146.797.369.154 1.067-.097 1.162-.422.108-.376.187-.76.279-1.145Zm60.298 24.553c1.178-.396 1.974-1.25 2.8-2.148-1.511.033-2.274.944-2.8 2.148Zm-10.2 32.922c-.227.02-.46.067-.687.05-.34-.027-.745-.001-.993-.18-.205-.144-.219-.554-.333-.89l-1.074.54c.297.46.538.83.739 1.14.308-.086.56-.248.725-.184.675.268 1.15-.113 1.623-.476ZM66.21 97.89c-.131.45-.221.761-.309 1.07 2.353-.598 2.463-.58 2.9-1.35l-2.59.28ZM89.817 80.87l-.128-.205c-.378.159-.793.266-1.124.493-.579.398-1.11.867-1.655 1.315-.144.119-.26.272-.432.455.178.073.32.181.377.147.71-.419 1.426-.828 2.1-1.301.332-.237.578-.599.862-.904ZM44.408 205.583c.258.46.426.92.736 1.237.171.176.59.161.89.132.118-.011.29-.283.305-.449.072-.814-.211-1.073-1.035-1.004-.255.021-.51.047-.896.084Zm27.48-126.556a48.14 48.14 0 0 0-.185-.7c-.96-.058-1.755.306-2.573.547-.115.034-.174.254-.259.388.167.084.374.278.491.233.797-.3 1.656-.102 2.525-.468Zm-13.635-7.931c-1.16-.535-2.453.22-3.004 1.705 1.219-.278 1.913-1.239 3.004-1.705Zm27.658 127.981 1.04.919c.38-.28.676-.494.97-.709-.06-.449-.114-.857-.19-1.405-.645.424-1.164.766-1.82 1.195ZM58.954 90.872c.565 1.165 3.682 2.7 4.938 2.46-.779-.383-1.61-.656-2.388-1.03-.824-.397-1.6-.892-2.55-1.43Zm11.01-51.892c1.417.103 2.54-.45 3.425-1.583-1.476-.33-2.199.948-3.424 1.583Zm-6.563 48.195c-.267.47-.517.907-.812 1.422.441.223.812.408 1.229.618l.898-1.696-1.315-.344ZM39.955 22.556c.26-.845.458-1.497.656-2.153-1.13-.155-1.438.103-1.59 1.298l.412.158-.513.48c.475.098.799.166 1.035.217ZM23.162 45.592c-1.53.157-2.458 1.003-3.435 2.038 1.433-.297 2.66-.671 3.435-2.038Zm5.296-24.228-1.792.353c.08.53.15.987.23 1.495.575-.164 1.033-.292 1.463-.414.035-.525.064-.944.099-1.434ZM82.769 86.73c-1.37-.01-2.928.625-3.262 1.39 1.283-.034 2.528.046 3.262-1.39ZM34.693 193.792l3.018-1.318c-.106-.219-.22-.457-.347-.716-1.05.473-2.104.944-3.205 1.441.232.255.383.424.534.593ZM52.268 79.866c-.378-.2-.689-.36-1.058-.555-.349.726-.644 1.341-.982 2.052l.992.484 1.048-1.981Zm36.273-16.76c.753-.11 1.302-.2 1.852-.267.486-.059.982-.067 1.462-.15.14-.025.248-.231.37-.355-.165-.041-.328-.103-.495-.118-.126-.01-.257.041-.385.064l-.119-.146.664-.844c-1.29.26-2.193 1.15-3.35 1.815Zm-2.155 125.901c-.486.779-.993 1.589-1.496 2.397.035.034.073.066.111.098.978-.663 1.956-1.323 3.098-2.094-.682-.16-1.142-.266-1.713-.401Zm3.795-124.33c.018.084.039.169.059.25.407.031.814.079 1.222.087 1.301.028 1.486-.218 1.1-1.457-.015-.047-.074-.08-.206-.21-.707.434-1.444.883-2.175 1.33Zm-5.77 13.934c-.501.251-.93.472-1.368.686-.398.196-.878.265-1.31.71 1.076-.014 1.957-.057 2.564-.89-.068.174-.135.348-.205.522.052.047.104.095.158.142.844-.579 1.688-1.157 2.534-1.735-.836.045-1.667.058-2.102.946a42.74 42.74 0 0 1-.272-.381ZM65.528 97.968c-2.52.354-3.393.766-3.982 1.797 1.566.147 2.596-.954 3.982-1.797Zm11.346-12.61c-.11.092-.298.178-.376.323-.159.303-.243.646-.397.95-.224.442-.345.967-1.079.882-.409-.05-.687.558-.553 1.127.499-.237 1-.45 1.472-.711.14-.077.259-.266.304-.429.085-.316.114-.649.159-.93h1.19c-.248-.42-.463-.78-.72-1.212ZM17.098 50.01c.442.096.873.328 1.21.232.379-.108.683-.5 1.004-.79.255-.232.495-.484.722-.746.11-.127.178-.293.32-.54-1.24.509-2.588.539-3.256 1.844Zm57.328 131.747c-.147-.184-.378-.467-.589-.73l-1.193.455c.245.329.466.63.771 1.046-.483.151-.85.185-1.113.367-.365.254-.33.618-.014.986.503-.34 1.02-.616 1.439-.998.283-.262.427-.675.7-1.126Zm2.215 18.648c-.77.042-1.561.115-2.352.117-.758 0-1.224.42-1.744.964 2.901.052 3.262-.097 4.096-1.081ZM92.256 76.67l-3.618 2.226 1.52.102c1.097-.347 1.692-1.239 2.098-2.328ZM16.224 45.161c0-.043-.002-.085-.003-.128-.467-.122-.965-.18-1.395-.383-.558-.263-1.003-.03-1.47.173-.371.158-.428.433-.22.764.09.143.199.276.348.479l2.74-.905Zm-.312-2.273c-1.656-.749-2.586-.692-3.581.186.61.2 1.208.564 1.785.538.582-.026 1.145-.444 1.796-.724ZM81.666 190.02c-1.225.77-2.814.997-3.566 2.465 1.452-.424 2.863-.906 3.566-2.465ZM91.02 65.967l-.077-.369c-.56 0-1.123-.003-1.683.002-.66.006-1.088.47-1.582.806-.44.303-.884.598-1.327.899.036.06.072.122.11.182.745-.281 1.484-.583 2.235-.834.768-.255 1.55-.46 2.324-.686ZM59.632 115.57c.517 1.087-.626 1.59-.793 2.42-.03.139-.343.202-.468.346-.097.113-.106.302-.156.457.059.036.118.072.173.108.323-.301.604-.677.975-.891.734-.425.952-1.008.79-1.804-.038-.192.053-.41.016-.605-.054-.285-.169-.56-.301-.979-.663.711-1.122 1.333-1.488 2.018l.14.103c.35-.372.701-.742 1.112-1.173Zm15.231 87.665c1.247-.254 2.562.017 3.457-1.349-.756.036-1.377.064-1.998.096-.822.042-1.112.278-1.459 1.253ZM53.166 82.678c.373-.725.711-1.374 1.06-2.051l-1.233-.456-1.096 1.988 1.27.52ZM16.77 40.466c-1.635-.635-2.884-.213-4.073.682.46.172.958.405 1.377.3.872-.214 1.698-.606 2.696-.982Zm41.068 116.301.243.045c.055-.229.232-.533.144-.675-.356-.574-.09-1.154-.112-1.725-.062-1.41-.124-2.821-.173-4.232-.043-1.193-.073-2.387-.106-3.582-.145.094-.23.198-.227.3.04 3.187.087 6.374.139 9.56.002.103.061.205.092.309Zm46.126-112.446c-.774-.488-1.391-.443-1.996.183-.463.484-1.008.891-1.549 1.36 1.932-.013 2.208-.132 3.545-1.543ZM93.035 195.375l-.056-.094c-.277.137-.555.27-.829.415-.969.514-1.953 1.006-2.898 1.563-.711.419-.757.667-.473 1.437l4.256-3.321ZM83.372 83.616c-.522-.492-.995-.742-1.557-.388-.138.086-.208.281-.307.425.14.059.277.157.419.167.795.058 1.542-.177 2.302-.357.946-.226 1.452-.984 2.238-1.616-1.57-.18-2.233.91-3.095 1.77Zm37.796-53.362c.072.033.142.068.216.101.275-.55.766-1.1.77-1.653.008-.752-.426-1.45-1.286-1.649-.099.27-.168.557-.303.805-.201.364-.151.727.135.936.52.388.621.864.468 1.46Zm-96.74 161.919a4.347 4.347 0 0 0-.198-.054c-.186.411-.4.816-.554 1.241a9.784 9.784 0 0 0-.437 1.477c-.177.918.393 1.902 1.24 2.096-.199-1.599-.68-3.175-.05-4.76Zm73.04-144.698c-1.818-.01-2.198.198-3.807 2.017.671-.098 1.349-.189 2.022-.3.134-.023.292-.08.385-.175.46-.488.904-.994 1.4-1.542ZM86.46 200.017c-.89-.567-1.47-.301-2.019.238-.39.381-.817.719-1.222 1.084-.108.096-.194.22-.331.385 1.934-.09 2.642-.327 3.223-1.055-.258.035-.51.068-.763.1a1.906 1.906 0 0 0-.018-.108l1.13-.644Zm8.156-160.512c-1.083-.126-1.857.004-2.556.564-.715.578-1.478 1.099-2.22 1.644l.139.214c.697-.332 1.566-.257 2.09-1.019.102-.147.345-.33.48-.298.959.21 1.32-.58 2.066-1.105Zm-36.279 62.34c.008-1.095-.002-1.136.995-1.402.75-.199 1.136-.724 1.6-1.416-1.692.362-3.194.752-3.756 2.681.407.047.776.092 1.161.137Zm29.675-81.741-2.373-.211c0 .345-.034.663.009.97.031.223.101.506.258.632.282.22.642.342.996.52.907-.286.631-1.226 1.11-1.911Zm-6.17 61.985c1.404-.679 3.004-.412 3.997-1.928l-3.998.696v1.232Zm-48.65-20.448c1.55.441 3.149.317 4.737.3 1.599-.017 3.195-.06 4.793-.09-3.174-.214-6.339-.55-9.53-.21Zm39.722 35.677c-.498.066-.943.185-1.382.174-1.164-.027-2.028.677-3.012 1.077.39.017.764.025 1.123-.04.3-.051.65-.114.86-.3.397-.353.8-.48 1.313-.403.22.034.47.018.682-.054 1.037-.352 2.069-.73 3.137-1.112-.605-.39-.605-.39-2.836.094l.115.564Zm16.239 97.614c-1.051.418-1.988.823-2.713 1.583-.435.458-.51 1.024-.223 1.589 1.06-.947 2.445-1.539 2.936-3.172ZM97.31 48.696c.858-.167 1.733-.151 2.397-.517.669-.368 1.377-.89 1.747-1.836-1.648.412-3.192.714-4.144 2.353ZM88.109 204.98l.066.193c2.91-.393 5.765-1.001 8.495-2.13-2.824.528-5.63 1.13-8.436 1.741-.052.011-.085.128-.125.196ZM24.91 46.791c-1.846.422-3.511.95-4.616 2.69 1.762-.567 3.476-1.012 4.615-2.69Zm60.102-27c-.786 0-1.504-.007-2.222.001-.468.005-.702.225-.603.718.04.193.072.386.119.635l2.233.185.473-1.54ZM81.069 41.9c.019.055.036.111.057.168.51-.148 1.013-.323 1.532-.436 1.174-.256 2.184-.757 2.908-1.778-.483 0-.931-.036-1.37.012-.322.034-.683.108-.935.29-.754.547-1.465 1.158-2.192 1.744Zm6.73 163.227c-.949-.263-1.854.16-2.78.229-.983.074-1.933.322-2.912.392-.963.072-1.907.412-2.859.633.014.073.029.144.045.215a57.822 57.822 0 0 0 8.507-1.469ZM76.87 81.987l-.14 2.716c.342-.116.62-.189.876-.3.567-.25.713-.604.543-1.234-.027-.101-.079-.267-.034-.306.645-.562.11-.952-.165-1.443l-1.08.567Zm-7.717.183c.134-.712.37-1.177 1.075-1.28.425-.063.843-.198 1.246-.346.196-.072.354-.25.683-.494-.961-.21-1.722-.15-2.276.27-.444.337-.723.3-1.144.119-.283-.122-.605-.153-1.105-.271l1.502 2.749.92-.514-.9-.233ZM34.58 20.483c-.128.298-.17.66-.329.719-.538.205-.587.63-.713 1.132l.893-.102c.59.915.59.915 1.365.849l-.43-.854c.657-.297.709-1.053 1.067-1.744H34.58Zm47.743 52.824.13.175c.26-.142.52-.283.777-.43.352-.197.682-.44 1.051-.587.916-.37 1.858-.678 2.773-1.044.257-.103.465-.325.694-.493l-.109-.232c-.93.131-1.926-.138-2.78.507-.713.54-1.402 1.114-2.097 1.679-.158.127-.293.282-.439.425Zm12.085-25.033a24.757 24.757 0 0 0-.094-.306c-.945.272-1.965.407-2.814.86-.677.364-1.148 1.114-1.71 1.69.043.06.083.12.126.178.95-.316 1.901-.632 2.759-.92.196-.244.322-.481.516-.638.387-.312.81-.578 1.217-.864Zm-7.02 152.009c.686.697 1.127.819 1.717.429a29.503 29.503 0 0 0 2.341-1.758c.203-.165.274-.489.408-.739l-.156-.11c-1.402.707-2.802 1.415-4.31 2.178Zm9.415-154.911c-2.233.149-3.358.833-4.403 2.657 1.124-.39 2.432-.21 3.1-1.45.011-.023.046-.034.065-.055.392-.364.784-.728 1.238-1.152ZM73.346 185.627l3.19-1.658c-.011-.076-.025-.152-.037-.229l-1.757-.5c-.714.441-1.386.861-2.105 1.307.252.385.452.69.71 1.08Zm11.372 4.361c-1.186.74-2.228 1.341-3.214 2.024-.455.315-.728.828-.856 1.437 2.577-.771 3.253-1.329 4.07-3.461Zm6.395 1.007c-1.608.983-3.115 1.934-3.79 3.922 1.87-.81 3.297-1.843 3.79-3.922Zm-17.897.473c-.328-.15-.621-.378-.93-.402-.356-.026-.792.028-1.074.221-1.08.738-2.114 1.547-3.163 2.33-.007.091-.012.182-.02.273.662-.616 1.007-.159 1.376.232l1.121-.722c-.084-.435-.234-.743-.165-.99.09-.322.432-.276.739-.227.272.044.567.06.834.006.491-.1 1.018-.177 1.282-.721Zm13.591-115.73c-1.364.298-2.726.613-4.097.892-.453.092-.758.309-.997.752 2.046.437 3.853.319 5.094-1.644ZM81.211 59.42c-.775.06-1.6-.089-2.195.215-1.263.647-2.404 1.53-3.594 2.318.026.052.056.103.083.154 1.953-.708 4.112-.95 5.706-2.687ZM66.157 186.939c1.632-.504 3.04-1.271 4.396-2.14.547-.352.533-.454.02-.937-1.532.777-3.07 1.555-4.612 2.334.067.259.123.474.196.743Zm.985-108.238c1.474-.437 2.85-.841 4.249-1.256-.326-.51-.329-.53-.667-.461-.59.12-1.187.226-1.752.417-.432.143-.821.41-1.388.706-.9-.478.026-1.2.097-1.847-.446.101-.831.286-1.198.252-.961-.085-1.58.496-2.404.928 1.269.588 1.967-.633 2.998-.68.016.658-.378.978-.849 1.29.388.274.712.506.914.65Zm10.042 105.363c-.734 1.184-2.138 1.214-2.99 2.018.426.546.928.469 1.457.177.399-.219.799-.433 1.205-.654.392.347.495.608.007.9-.316.19-.768.263-.845.768 1.001.348 1.54-.364 2.116-.742-.182-.754-.347-1.431-.538-2.226a200.61 200.61 0 0 1-.412-.241ZM82.008 70.61c2.152.241 3.696-.635 5.161-1.978-2.212-.503-3.77.373-5.16 1.978Zm18.053 122.578c-.6-.275-.987-.452-1.333-.612-.218.171-.398.345-.608.467-.394.231-.817.409-1.204.648a55.3 55.3 0 0 0-2.323 1.491c-.464.318-.997.61-1.118 1.372.643-.35 1.161-.663 1.705-.92.703-.331 1.183-1.246 2.17-.858.017.007.05-.024.075-.039l2.636-1.549Zm-28.5-8.046-5.073 2.591.27.564c.788-.285 1.54-.577 2.302-.825.376-.122.806-.093 1.16-.253.7-.316 1.364-.715 2.045-1.082l-.704-.995ZM96.157 46.784c1.295-.147 2.605-.142 3.48-1.259.05-.062.162-.07.228-.124.603-.502 1.207-1.009 1.897-1.59-.876-.213-1.613-.863-2.282.079.18.15.362.305.633.533-.831.314-1.594.488-2.231.873-.64.387-1.155.984-1.725 1.488ZM57.954 81.79l.27.165c.296-.319.671-.59.87-.96.54-1.005 1.188-1.932 2.085-2.617.955-.726 1.998-1.338 3.016-1.974.392-.244.83-.417 1.249-.621-.023-.052-.044-.104-.066-.157-.64.24-1.283.468-1.916.722-1.898.76-3.678 1.667-4.583 3.67-.047.103-.151.177-.2.278-.247.496-.485.995-.725 1.494ZM83.482 198a9.735 9.735 0 0 0-.11-.247l-4.29 1.389c.36.307.653.556.979.836-.343.203-.565.333-.78.458-1.11-.408-1.624-.238-2.47.845.576-.036 1.13-.159 1.651-.08.856.129 1.322-.392 1.835-.889.137-.134.273-.272.428-.383.916-.647 1.837-1.287 2.757-1.929Zm-8.835-5.305c-1.279-.155-2.318.269-3.284.824-.817.469-1.553 1.081-2.314 1.644-.135.098-.218.264-.414.508 1.568-.069 2.954-.149 3.96-1.354.163-.195.393-.337.598-.495.463-.363.93-.72 1.454-1.127Zm27.885-142.178c-.565.116-1.075.145-1.514.337-.418.183-.758.536-1.129.814a6.634 6.634 0 0 1-.09-.116l.401-.597-4.173 1.077.173.91c.442-.126.846-.258 1.259-.36.758-.184 1.514-.374 2.282-.518.934-.173 1.879-.285 2.819-.452.532-.095.586-.298.249-.733-.086-.113-.171-.226-.277-.362Zm3.705-5.378c-1.06-.73-2.03-.48-2.527.537-.097.196-.228.533-.34.533-.865-.006-1.234.748-1.837 1.13-.212.134-.374.347-.7.66.409-.037.58-.044.749-.07.941-.141 2.044.134 2.6-1.013.034-.07.232-.044.315-.113.614-.492 1.292-.925 1.74-1.664Zm-25.73 156.523c-.699.261-1.569.137-1.911 1.104 1.188-.297 2.462.005 3.342-1.049.066-.079.22-.076.314-.141.253-.18.515-.354.735-.568.368-.356.703-.742 1.049-1.118.12-.131.228-.272.34-.407-1.46.354-3.07.192-4.099 1.572.056.151.133.354.23.607Zm6.881-135.73a5.103 5.103 0 0 1-.023-.186c-1.164.031-2.331.046-3.45.455-1.063.39-1.394 1.444-1.986 2.323.67-.127 1.315-.615 1.877-.07l3.582-2.523ZM74.92 199.562c.014.065.028.13.038.196.74-.089 1.478-.171 2.213-.272.311-.043.676-.042.91-.21 1.094-.791 2.155-1.633 3.218-2.464.068-.052.078-.175.16-.383-.328.104-.54.166-.748.236-.487.166-.96.434-1.455.485-1.81.189-3.1 1.241-4.336 2.412ZM27.802 51.715c-1.76.202-7.162 1.808-8.064 2.411.589.11 1.111.254 1.642.293.52.04 1.02.008 1.536-.272.77-.418 1.681-.506 2.505-.804.898-.327 1.99-.41 2.381-1.628Zm56.129-7.488c3-.631 5.199-2.442 7.3-4.585-.276.026-.465.076-.65.055-.659-.068-1.19.121-1.726.551-1.566 1.26-3.192 2.45-4.785 3.676-.075.057-.088.188-.14.303Zm-.98 150.96c.531-.385.885-.68 1.271-.919 1.219-.749 2.475-1.442 3.668-2.229.675-.446 1.003-1.198 1.285-1.989a1.675 1.675 0 0 0-.788.228c-1.013.613-2.028 1.224-3.02 1.872-.757.494-1.653.852-1.965 1.831-.113.352-.257.69-.45 1.206ZM90.24 61.215c-2.702-.31-4.153.285-4.826 1.865l.369.218c-.51.378-.973.613-1.283.975-.325.381-.502.884-.743 1.333l.103.059 6.38-4.45Zm-60.277 127.83c-2.107 2.053-3.162 4.369-2.61 6.121.58-.213 1.161-.423 1.563-.571.291-1.377.428-2.65.845-3.826.407-1.152 1.099-2.205 1.722-3.416l-2.092 1.001c.224.27.38.461.572.691Zm2.004-1.794c.435.398.202.7-.009 1.066-.592 1.018-1.202 2.04-1.665 3.121a6.097 6.097 0 0 0-.47 2.749c.534-.187.985-.368 1.45-.505.468-.138.61-.412.615-.896.013-1.737.423-3.383 1.272-4.908.23-.411.45-.824.688-1.267l-1.88.64Zm40.071 8.925c-1.37-.005-2.045 1-2.883 1.793.869-.028 1.704-.11 2.526-.266.378-.072.76-.242 1.087-.452a36.334 36.334 0 0 0 2.32-1.63c.511-.389.969-.849 1.425-1.3.061-.06-.014-.255-.023-.379-.98.192-1.908.362-2.83.553-.926.194-1.59.85-1.622 1.681Zm1.464 7.018c.333-.461.574-.792.862-1.195-1.252.384-2.704-.252-3.647 1.055-.08.109-.43.084-.62.02-.073-.024-.046-.333-.073-.51-.014-.072-.052-.141-.081-.219-2.238.211-4.454.359-6.77.699.226.244.375.347.446.489.25.511.76.629 1.152.464.663-.278 1.365-.281 2-.257 2.303.093 4.538-.435 6.73-.546Zm28.38-9.125c-.793-.586-.881-.589-1.551-.183-.446.268-.891.532-1.346.783-2.39 1.321-4.622 2.877-6.774 4.553-.31.24-.506.512-.484 1.029.581-.197 1.15-.275 1.583-.559 1.66-1.099 3.254-2.291 4.912-3.394 1.168-.777 2.395-1.463 3.66-2.229Zm-74.935 2.699c-.227-.189-.428-.346-.614-.516-.253-.23-.432-.45-.054-.762.144-.12.243-.396.227-.588-.147-1.785.414-3.355 1.442-4.774.401-.553.88-1.053 1.457-1.734l-1.738.863c.09.732-.014.97-.418.837-.468-.156-.649.108-.864.352-1.466 1.653-1.925 3.533-1.238 5.66.236.735.173.887-.477 1.151.86.154 1.424.046 2.277-.489ZM76.34 94.886c-1.213-.198-1.232-.223-.817-1.15.993 0 2.06-.012 3.125.004.763.011 1.299-.286 1.561-1.072-1.634.145-3.245.283-4.78.877-1.048.404-2.106.785-3.145 1.204-1.09.44-2.164.915-3.26 1.38.683.803.714.828 1.587.687.365-.06.763-.118 1.075-.3.947-.555 1.97-.792 3.037-.972.5-.085.964-.383 1.617-.657Zm6.11-54.738a8.701 8.701 0 0 0-.103-.11l-2.723.315c-.846.098-1.639.293-2.253.971-.385.427-.862.768-1.278 1.169-.815.783-1.617 1.581-2.423 2.373l.115.16c.586-.218 1.184-.41 1.758-.66.947-.414 1.877-.866 2.817-1.294.44-.204.95-.316 1.325-.604.952-.733 1.847-1.541 2.766-2.32Zm21.176 155.013c-.218.133-.488.201-.574.366-.243.472-.716.681-1.056 1.036-1.063 1.106-2.498 1.601-3.797 2.315-.585.323-1.373.347-1.55 1.189-.803.259-1.144 1.032-1.72 1.54-.104.091-.165.228-.338.474 1.857-.405 3.329-1.199 4.644-2.274.254.158.47.29.765.47 1.033-.947 2.123-1.814 3.039-2.837.492-.553 1.013-1.292.587-2.279Zm-33.276 4.867.104.196c.767-.089 1.535-.189 2.305-.265 1.648-.164 2.579-1.236 3.284-2.377l2.867-1.536c-.123.355-.188.544-.304.873.762-.289 1.389-.529 2.062-.786-.738-.932-1.033.306-1.6.187.018-.1.005-.201.05-.242.315-.307.297-.668.011-.914-.171-.146-.516-.152-.774-.124-.822.094-1.51.87-2.436.482a845.61 845.61 0 0 1-2.089 1.776c.608-.076.99-.045 1.132.627-.338.077-.648.161-.966.218-.619.11-1.323.054-1.838.342-.68.376-1.213 1.015-1.808 1.543Zm2.98-116.744a11.354 11.354 0 0 0-.099-.322c-1.028.148-2.06.295-3.087.447a.382.382 0 0 0-.158.073c-1.176.89-2.154 1.818-2.14 3.525.01 1.515 1.339 3.261 3.065 2.775.23-.064.49-.008.747-.008.13.715-.603 1.37.01 2.022.143-.116.285-.226.445-.353l.198.578 1.111-.43c-1.084-.36-.643-1.144-.869-1.644.33-.307.602-.558.98-.907-.513-.038-.824-.104-1.126-.076a3.212 3.212 0 0 1-3.41-2.313.654.654 0 0 1 .056-.485c.385-.602.676-1.388 1.235-1.721.685-.412 1.448-.871 2.345-.868.232.002.466-.189.697-.293Zm35.813-47.858.101.222c.667-.144 1.362-.213 1.993-.453.664-.25 1.242-.719 1.901-.99.879-.363 1.804-.61 2.697-.94a81.685 81.685 0 0 0 3.108-1.22c1.136-.478 1.358-1.026.904-2.11-1.355 1.033-2.292 1.274-3.861 1.588-1.079.215-2.165.254-3.167.95-1.308.905-2.451 1.97-3.676 2.953Zm9.218-27.671c.299-.123.615-.246.922-.383.073-.033.125-.114.184-.17-.179-1.14-.057-1.317.956-1.563l-1.027-.25c.329-1.337 1.594-1.434 2.459-2.055a4.218 4.218 0 0 0-1.344.206c-.543.184-1.058.452-1.596.653-.504.19-1.025.343-1.587.53l-.307-.575c.179-.142.295-.291.448-.353.761-.313 1.522-.642 2.308-.883.463-.143.907-.2.927-.82.005-.096.14-.187.334-.43-.982.292-1.446 1.167-2.385 1.116-.832-.046-1.472.961-2.452.52.035-.187.008-.422.107-.503.325-.259.864-.387 1.004-.706.209-.466.374-.796.927-.799.122 0 .243-.073.364-.114-.55-.078-1.249-.196-1.483.294-.305.65-.785.85-1.332.95-.052.407.011.806-.156 1.061-.42.649-.529 1.328-.413 2.059.061.384-.073.605-.55.718-.103-.461-.202-.904-.338-1.5-.414 1.565-.343 2.076.262 2.578l.751-.82 1.808 1.31c.572-.758.664-.77 1.209-.071ZM65.328 206.222c-.268-.064-.54-.08-.767-.189-.957-.462-1.898-.374-2.902-.113-.598.154-1.274.054-1.911.013-.734-.048-1.46-.186-2.197-.234-1.468-.095-2.951-.072-4.407-.253-1.783-.219-3.547-.392-5.335-.069-.628.114-.878.355-.691.937.099.316.286.606.462.968.605-.47 1.229-.377 1.854-.309.88.095 1.763.238 2.643.245 1.76.013 3.527.011 5.283-.102 1.551-.099 3.158.233 4.646-.492.02-.01.056 0 .083.005 1.1.152 2.184.113 3.24-.407ZM47.143 77.502c.095.032.19.066.286.1.263-.511.504-1.033.799-1.524.096-.16.335-.235.506-.35.096.21.318.46.266.622-.163.506.108.749.495 1.085.216-.349.414-.823.898-.512.551.353-.17.693-.052 1.097.487.25 1.016.471 1.488.78.515.338.986.618 1.517-.016.099.18.162.272.205.373.26.613.441.656.853.172.297-.347.576-.71.852-1.055-.113-.216-.217-.406-.314-.599-.146-.297-.222-.66-.444-.877-.285-.282-.744-.392-1.018-.68-.305-.318-.42-.816-.725-1.127a6.107 6.107 0 0 0-2.565-1.56c-.297-.09-.659 0-.983.057-.18.031-.342.166-.531.265a88.52 88.52 0 0 1-.576-.762c-.503.717-.888 1.433-.878 2.31.134-.118.19-.297.312-.392.158-.123.42-.293.55-.237.328.137.196.4.05.645-.296.498-.584 1-.839 1.517-.099.198-.105.442-.152.667Zm-4.53 109.092c.737-.125.748-.725.937-1.221-.747-.252-.747-.252-1.42.891.45.912.411 1.252-.315 1.872-.205-.428-.33-.883-.606-1.21-.405-.483-.198-.751.165-1.084.256-.237.452-.541.677-.816l-.153-.135c-.736.475-1.294 1.147-1.83 1.833-.092.119-.011.37-.02.559-.027.635.365 1.356-.381 1.844-.974-.543-1.01-1.369-.159-2.266.029-.606.052-1.134.076-1.662l-.205-.07-1.49 1.926c.453.315.486.614.275 1.069-.148.323-.032.784.01 1.179.021.217.132.424.22.689-.217.06-.444.191-.52.131-.316-.249-.77-.418-.701-.967.063-.504.097-1.013.142-1.511l-.461-.34.975-1.535c-.366.048-.676.055-.966.133-.713.194-1.431.356-2.004.912-1.15 1.121-1.632 2.575-2.048 4.048-.185.651-.182 1.355-.275 2.133l2.02-.626c0-.09.004-.176 0-.263-.151-1.845.333-3.539 1.238-5.128.18-.317.368-.638.985-.596-.414.958-.858 1.807-1.153 2.706-.314.948-.496 1.944-.29 3.018.323-.084.604-.147.876-.235.601-.191 1.211-.372 1.799-.598 1.17-.452 2.361-.868 3.481-1.423.791-.392 1.482-.983 2.206-1.502.377-.267.55-.597.181-1.007-.842.264-.965.2-1.265-.748ZM81.34 21.124c-.17-1.129-.168-1.176-1.231-1.257-1.95-.146-3.903-.259-5.857-.337-2.476-.097-4.96-.09-7.432-.23-2.492-.143-4.941.043-7.381.72l1.825.162-.02.17c-1.051.096-2.102.193-3.156.278-.108.01-.228-.04-.335-.08-.93-.359-1.833.083-2.79-.044.516 1.7 1.796 2.093 3.231 1.567-.518-.149-1.128.185-1.74-.39.385-.103.64-.215.905-.233 1.413-.098 2.83-.234 4.243-.242 2.28-.013 4.56.054 6.84.106 1.169.027 2.339.114 3.51.144a13.13 13.13 0 0 0 1.715-.066c.419-.044.826-.249 1.242-.255 2.141-.027 4.281-.014 6.43-.014Zm-13.5 69.087c-1.797-2.302-.758-5.312.458-6.734-.09-.25-.15-.54-.288-.787-.456-.814-.936-1.616-1.413-2.418a2.695 2.695 0 0 0-1.563-1.229c-.328-.093-.74.098-1.157.167-.394-.476-.74-.62-1.134-.405a31.01 31.01 0 0 0-1.173.667c-.874.528-1.195 1.335-1.204 2.285.301.172.54.308.755.429v1.264l.881-.505c.581.674-.144.97-.364 1.448.161.2.34.414.517.63l.064-.165c.251.011.529-.027.747.067.074.033.083.443-.012.602-.274.471-.13.63.363.652.123.007.243.114.369.165.392.158.777.339 1.178.457.393.115.827.118 1.113.476-.213.163-.44.258-.54.427-.184.31-.294.66-.432.997-.11.279-.212.561-.32.843l.163.156c.29-.137.574-.296.876-.4.139-.048.352-.045.463.035.097.068.123.275.122.422-.002.108-.1.214-.24.487.536-.155.901-.264 1.318-.385l.453.352Zm-15.15 90.36c.718.401.716.402.959 1.038.052.133.106.281.205.375.645.612 1.315 1.126 2.272 1.267.578.085 1.368-.194 1.743.592.023.052.163.083.236.068.791-.165 1.65.428 2.405-.238.115-.101.385-.062.578-.041 1.632.174 3.255.283 4.806-.454.27-.129.626-.099.88-.249.732-.439 1.709-.608 1.928-1.668.028-.149.258-.256.494-.475-.376-.145-.718-.242-1.026-.404-.682-.358-1.244.15-1.769.351-.374.143-.797.051-1.062.248-.48.356-.773-.135-1.157-.128-.227.005-.456-.062-.68-.047-.645.041-1.285.128-1.93.16-.368.02-.612-.161-.574-.58.04-.413.336-.531.678-.51 1.065.066 2.062-.217 3.059-.531.808-.254.885-.387.601-1.265-.15-.025-.32-.046-.486-.084-.826-.187-1.747.362-2.513-.317-.033-.03-.114-.021-.168-.014-.774.112-1.549.217-2.319.345a.62.62 0 0 0-.364.224c-.457.602-.903 1.204-1.832 1.036.583.298 1.01.804 1.72.772.335-.014.503.457.25.709-.181.175-.492.272-.755.295-.277.025-.565-.112-.851-.118-1.033-.021-1.985-.249-2.849-.863-.323-.23-.777-.268-1.25-.42-.03.403-.047.643-.065.926h-1.164Zm-6.316 3.277c.324.493.907.505.778 1.146-.125.627-.839.34-1.012.792.341 1.089.313 1.233-.403 1.776 1.146.506 2.177 1.157 3.394 1.348.358.058.7.021.989-.361.222-.295.636-.485 1.004-.626 1.152-.445 2.352-.437 3.556-.271.048.005.086.071.152.132v.573l.528.159-1.196 1.377.33.407c.335-.425.569-.867.929-1.147.585-.455 1.24-.834 1.89-1.194.676-.371.885-.291 1.356.395.407-.185.85-.331 1.238-.572.364-.228.718-.398.943.06.227.46-.196.535-.527.68-.763.335-1.512.707-2.244 1.104-.335.181-.619.454-.928.686.035.075.068.149.1.224.247-.062.528-.068.736-.194.555-.344 1.06-.775 1.625-1.103a28.859 28.859 0 0 1 2.449-1.285c.165-.075.448.106.678.169-.073.194-.104.416-.223.572-.096.121-.297.159-.453.232l-3.147 1.537c.597.274.973.329 1.303-.125.127-.173.37-.269.574-.374a217.87 217.87 0 0 1 3.105-1.56c1.181-.579 1.31-1.528.416-2.444-.711-.731-1.474-.913-2.404-.604-.191.065-.396.097-.579.179-.652.289-1.294.262-1.983.097-.95-.232-1.913-.479-2.917-.275-.24.05-.504-.021-.758-.036.035-.054.072-.107.108-.16-.262-.269-.475-.644-.793-.782-.348-.151-.792-.083-1.2-.111-.208-.151-.427-.395-.7-.485-.672-.226-1.284-.522-1.71-1.106-.266-.367-.601-.421-.993-.301-.36.112-.718.224-1.072.356-.956.357-1.913.725-2.939 1.115ZM95.31 42.851c.639-.159 1.253-.327 1.873-.46.589-.127.931-.927 1.8-.595-.884 1.223-2.282 1.797-3.225 2.992.951-.257 1.904-.223 2.633-.904.417-.393.817-.815 1.286-1.14.342-.24.669-.714 1.287-.34-.08.218-.16.435-.221.596.512.045 1.032.09 1.554.133.113.008.241.035.342 0 .73-.271 1.424-.119 2.093.174.66.285 1.292.629 1.948.926.224.1.546.267.706.18.743-.401.777-.147.527.486-.022.057.031.165.078.226.243.314.498.618.782.967l.47-.422c-.867-.903-.823-1.274.295-1.769.946-.417 1.931-.749 2.913-1.08.57-.193.936-.503 1.009-1.332-1.093.489-2.069.888-3.006 1.365-.447.226-.782.306-1.155-.177.219-.184.387-.407.613-.504 1.163-.495 2.318-1.027 3.52-1.405.937-.294.991-.227 1.169-1.248-1.292.52-2.589 1.045-3.937 1.59-.118-.09-.291-.226-.545-.422.231-.159.396-.317.594-.4 1.493-.635 2.992-1.254 4.488-1.877.613-.255 1.041-.687 1.365-1.435-.673.255-1.228.47-1.783.678-1.24.464-2.476.935-3.723 1.382-.354.126-.755.285-1.161-.217.841-.348 1.602-.663 2.363-.976 1.616-.665 3.234-1.321 4.842-2.003.258-.109.468-.329.702-.496l-.109-.253c-1.206.224-2.461.312-3.611.708-1.194.41-2.407.558-3.627.746-1.448.22-2.895.423-4.372.637.178.497.111.785-.362.866-.549.092-.828-.092-1.04-.725-1.076.178-2.157.373-3.241.523-.455.064-.984.292-1.272-.369-.048-.111-.353-.136-.542-.155-.269-.023-.538-.006-.81-.006.357-.262.742-.46 1.106-.431.987.08 1.632-.45 2.262-1.068.307-.302.616-.599.926-.896-1.085.174-1.07.19-1.788.91-.29.291-.668.497-1.037.766-.376-.752.364-1.153.407-1.761-.77.122-1.483.218-2.19.351-1.459.276-2.904.6-4.405.635-.81.018-1.67.01-2.361.639-.165.149-.538.094-.815.08-1.211-.056-2.418-.145-3.538.515-.455.268-.987.408-1.475.622-.086.037-.135.164-.234.294.614 0 1.161.053 1.693-.01 2.093-.248 4.18-.578 6.298-.243.272.043.57-.048.855-.083.088-.01 1.318.01 1.396.017.52.037 1.065-.098 1.547.23.045.031.2-.016.229-.068.33-.618.693-.217 1.11.089-.437.189-.874.375-1.412.606 1.133.357 2.111-.497 3.136-.09-1.537.665-3.205.626-4.785.889-.172.306-.332.592-.491.879.56.243.952.224 1.462-.068.08-.046.19-.154.224-.135.579.375 1.148.02 1.717-.02.538-.04 1.074-.139 1.614-.165.446-.023.904.082 1.346.026 1.763-.22 3.523-.484 5.283-.726.108-.015.223.022.333.035a60.544 60.544 0 0 1-6.084 1.45c-2.09.39-4.201.689-6.315 1.029-.028.23-.064.502-.105.808.183.134.39.287.581.43ZM39.456 192.45c-3.631 1.685-7.604 2.69-10.76 5.501l-.74-.586c-.608.209-1.214.403-1.808.629-.441.169-.517.544-.193.869.078.079.186.131.288.191 2.021 1.203 4.206 2.009 6.466 2.622.408.11.654.274.622.897l-4.905-1.485c-.207.897-.207.897.432 1.155.24.099.488.182.725.295 1.825.876 3.698 1.613 5.794 2.019.043-.375.152-.723.088-1.032-.03-.139-.418-.192-.637-.299-.26-.126-.356-.571-.128-.733.2-.143.48-.244.722-.244.62 0 1.24.08 1.862.101.22.006.513.015.652-.111.323-.291.647-.208.977-.119.503.135.99.308 1.486.467.3.095.678.359.876.26.447-.226.688.051 1.03.166.358.12.907.272 1.124.098.52-.417 1.053-.457 1.66-.482 1.387-.054 2.75-.156 4.124.283.807.257 1.655-.093 2.434-.488-.457-.099-.914-.143-1.358-.087-.55.069-.826-.09-.803-.766.253-.039.497-.105.742-.114.996-.041 1.989-.087 2.98-.072.19.002.438.234.548.423.119.204.11.484.151.697.99.121 1.956.279 2.929.349 1.01.071 2.032.145 3.037.062 1.719-.143 3.422-.426 5.139-.614 1.684-.184 3.377-.33 5.068-.481 1.008-.092 1.96-.3 2.794-1.217-4.831.385-9.562.506-14.387 1.778.154-.391.186-.626.318-.774.147-.162.371-.264.581-.351.236-.097.643-.282.716-.201.303.351.664.187.961.155 2.154-.222 4.299-.61 6.457-.697 1.545-.062 2.4-1.031 3.479-1.877-.744-.349-1.344.097-1.977.134-.475.026-.81.2-1.114.551-.124.141-.43.276-.567.219-.175-.074-.264-.351-.453-.64l-7.478 1.082c-.2-.419-.007-.949.302-.884.4.082.71-.019 1.058-.059 2.177-.238 4.353-.474 6.53-.726.223-.025.461-.096.643-.22.663-.443 1.302-.914 1.941-1.385.052-.037.047-.15.11-.37-.358.045-.65.076-.939.122-.114.019-.229.11-.337.099-.924-.095-1.812-.086-2.457.742-.07.092-.143.209-.24.248-.277.116-.625.34-.844.256-.382-.144-.196-.529-.087-.83.009-.028-.052-.083-.113-.17-1.18.417-2.58.008-3.656.886-.355-.122-.715-.245-1.075-.37.308-.742.638-.918 1.29-.784.215.045.451.035.673.006.975-.124 1.944-.342 2.919-.377 1.096-.038 2.012-.432 2.876-1.042.26-.182.539-.333.808-.496-.323-.106-.574-.061-.82-.01-.618.133-1.232.287-1.853.399-1.996.358-4.003.671-5.988 1.073-.347.069-.547.024-.59-.229-.029-.183.144-.523.307-.587.445-.174.926-.273 1.404-.341 1.114-.157 2.245-.229 3.35-.429.702-.128 1.438-.312 2.039-.672.788-.472 1.463-1.135 2.17-1.733.12-.101.165-.291.27-.492-1.501-.025-1.501-.025-2.06.508.226.133.458.27.765.454-.869.69-1.793.732-2.65.899-1.145.223-2.322.282-3.479.459-.571.086-.803-.082-.824-.748 1.245-.189 2.485-.441 3.734-.54.708-.056.99-.591 1.46-.95H57.85c.508.568.245.878.026 1.239-.375.615-.694 1.263-1.02 1.906-.416.829-.819 1.664-1.221 2.5-.198.411-.475.69-1.124.691 1.04-2.192 2.029-4.274 3.02-6.368-2.311.16-4.514-.403-6.734-.872-.565-.118-.965-.337-1.042-.952l-2.557-.306c-.242.559-.245.548-.771.65-.652.128-1.37.143-1.934.439-1.858.97-3.645 2.072-5.486 3.076-1.696.924-3.427 1.787-5.142 2.678 1.632-1.643 4.107-2.047 5.59-3.921Zm25.374-25.04c-.987-.176-1.989-.09-2.988.05-.316.044-.644.114-.946.063-.149-.026-.254-.301-.38-.464.139-.105.268-.273.422-.304.307-.059.626-.029.94-.058.972-.088 1.942-.186 2.98-.286l-.077-1.164c-2.282.497-2.456.476-2.655-.263l2.593-.743c.132-.754-.293-1.489.496-2.078.435-.326-.05-.817-.344-1.015.094-.698.178-1.307.27-1.978-.743.248-.88.133-.857-.483.031-.924.043-1.848.036-2.773-.002-.439-.461-.961.281-1.242.052-.02.02-.269.02-.41-.006-1.17-.06-2.341-.015-3.507.078-1.993.215-3.984.333-5.974.094-1.59.167-3.182.321-4.765.052-.537-.052-1.291.815-1.343.179-1.882.35-3.725.525-5.571.245-2.53.473-5.063.75-7.591.159-1.463.536-2.913.58-4.376.077-2.485-.034-4.979-.058-7.47-.012-.942-.005-1.883-.005-2.851l-.67-.262c-1.087.422-1.252 1.285-1.261 2.211-.018 1.319.014 2.639-.012 3.958-.015.884.151 1.778-.263 2.647-.198.413-.182.933-.247 1.408-.043.325.009.702-.593.758-.098-1.644-.204-3.25-.283-4.855-.036-.708-.063-1.421-.006-2.125.094-1.211.265-2.413.395-3.62.038-.367-.002-.803-.452-.791-.754.021-1.503-.456-2.262-.013-.097.057-.273-.035-.41-.032-.236.01-.473.04-.709.066-.137.012-.293.083-.404.038-.998-.392-1.792.189-2.628.535-.156.064-.342.306-.333.456.033.514.146 1.023.238 1.587.088-.062.178-.12.262-.186.727-.582 1.186-.609 1.767.06.394.457.812.689 1.395.668.437-.015.759.199.825.606.051.324.004.696-.113 1.004-.178.465-.367.878-.216 1.416.103.372.074.83-.044 1.206-.184.599-.544 1.144-.728 1.744-.23.756-.356 1.542-.531 2.332.595-.038 1.053-.099 1.51-.087.346.008.729.093.707.572-.023.424-.399.641-.888.461-.528-.195-.999-.16-1.426.092-.133.67-.255 1.284-.38 1.924.666-.105 1.057.121 1.228.727-.354.244-.58.703-1.127.441-.068-.032-.335.161-.365.28-.095.433-.126.879-.178 1.288.902.261 1.776-.673 2.566.233-.097.131-.16.313-.261.338-.713.185-1.431.335-2.199.506l-.415 1.214c.54.053.991.114 1.438.133.361.013.638.123.72.489.111.48-.312.537-.618.769-.425-.532-.945-.545-1.328-.39-.349.387-.547.705-.83.896-.487.328-.707 1.005-.331 1.446.36.423.798.775 1.204 1.159.21.2.45.378.612.612.099.139.15.485.083.532-.161.109-.438.177-.61.113-.303-.114-.565-.342-.911-.567-.02.273-.038.442-.045.614-.01.162-.003.324-.003.475.907.219 1.256.368 1.216.716-.059.498.272.968.012 1.476-.116.225-.05.546-.055.824-.002.213.018.425.016.639-.004.507-.1 1.033.002 1.519.075.355.056.629-.01.98-.118.613-.359 1.297.195 1.859.605.617.592.656.049 1.363-.182.238-.362.552-.374.836-.04 1.069.03 2.14-.01 3.206-.066 1.675-.188 3.35-.282 5.023-.045.826-.086 1.652-.133 2.575-.371.287-.373.354-.252.887.082.355.146.739.099 1.094-.1.705-.32 1.392-.42 2.099-.171 1.203-.291 2.414-.43 3.622-.176 1.545-.315 3.094-.539 4.632-.168 1.163.03 2.367-.44 3.491-.109.266-.195.545-.264.825-.092.385-.125.748.378.915.137.044.324.241.315.357-.036.566-.133 1.127-.218 1.752.895.535.927.529 1.663-.416-.405-.752-.142-1.147.725-1.172a34.577 34.577 0 0 0 2.359-.17c.515-.052 1.027-.174 1.542-.234.64-.075.9.177.937.905-.536 0-1.072-.024-1.606.006-.517.032-1.035.108-1.55.185-.493.073-.98.17-1.47.257.009.066.016.131.022.195.131.028.266.089.392.079 1.265-.111 2.528-.226 3.79-.358.194-.019.472-.071.55-.203.293-.501.193-1.03.029-1.569-.151-.492-.567-.533-.903-.48-.803.128-1.66.023-2.39.565-.182.137-.59.045-.862-.038-.106-.031-.23-.433-.172-.493.187-.188.441-.373.696-.416.815-.147 1.646-.21 2.465-.349.202-.035.378-.234.567-.358l-.087-.249c-1.183-.549-2.256.48-3.42.361-.412-.53.097-.803.232-1.003l2.87-.29c.115-.49-.137-.53-.425-.506-.777.063-1.565.078-2.327.226-.534.101-.654-.128-.76-.516 1.176-.631 2.61-.062 3.694-.905-.117-.123-.225-.185-.322-.17-.543.082-1.096.136-1.618.291-.517.152-.828-.09-1.32-.458.47-.123.789-.236 1.113-.287.684-.107 1.386-.132 2.06-.285.873-.2 1.05-.548.764-1.325ZM24.044 54.85v.134c-.45.078-.9.186-1.355.223-.49.04-.99.01-1.485.01l-.024.275c.386.074.834.047 1.144.242.555.352.991.164 1.522-.024a49.22 49.22 0 0 1 3.533-1.086c.554-.15 1.12-.21 1.294-.766.397.072.716.165 1.041.18.414.024.497.28.587.606-.91.553-2.204.06-2.804 1.235-.248-.196-.446-.351-.638-.505l-2.514.905.034.216c.468.063.943.2 1.406.17.854-.057 1.703-.206 2.548-.334.43-.066.714-.004.82.504.04.194.288.439.486.487.41.1.85.13 1.275.103.571-.036 1.13-.19 1.712-.007.234.074.523.037.775-.01 1.398-.256 2.787-.092 4.17.064.836.094 1.614.17 2.124-.696.099-.168.274-.31.447-.407.104-.059.27-.01.585-.01l-1.337 1.26c.827.155 1.526.366 2.236.404 2.185.115 4.373.18 6.564.231.555.012 1.058.245 1.573.307.779.095 1.594-.046 2.39-.127 1.103-.111 3.269.143 4.343.595-.62.044-1.238.046-1.857.043-.453-.004-.998-.178-1.331.016-.385.224-.591.16-.927.011-.71-.316-1.3-.342-1.778-.182.357.234.728.504 1.127.724.165.092.387.131.581.117 1.578-.103 3.158-.21 4.733-.355.212-.019.404-.243.626-.386.12.04.338.173.561.18.374.012.754-.036 1.125-.095 1.576-.256 3.206.039 4.763-.452.26-.082.574.033.862.02 1.068-.055 2.135-.123 3.2-.188.335-.021.668-.098.999-.079 1.796.105 3.576.144 5.243-.705.333-.17.674-.334 1.03-.44 1.29-.38 2.59-.72 3.88-1.098 1.469-.43 2.929-.874 4.39-1.328.903-.282 1.796-.592 2.719-.897-.383-.934.852-1.47.7-2.447.953-.273 1.149-1.157 1.657-1.973-.732-.008-1.217.087-1.508.681-.23.467-.54.892-.783 1.353-.215.405-.415.681-.978.609-.4-.052-.836.158-1.424.288.549-.645.553-.607 1.033-.664.318-.038.72-.117.907-.333.346-.404.563-.92.844-1.41-.767-.115-1.209.291-1.513.736l-.63-.6c.183-.116.336-.254.516-.321.371-.14.78-.376 1.134-.327.565.076.576.178.806-.13.3-.398.556-.828.83-1.245-.316.056-.514.206-.697.37-.176.16-.33.333-.498.5l-.141-.128.95-1.208c-.048-.067-.097-.132-.145-.2-.668.23-1.48.03-1.944.87-.176.32-.475.574-.716.858l-.14-.12c.196-.282.392-.563.585-.843-3.77.803-7.312 2.141-10.946 3.21.543-.355 1.128-.611 1.72-.84.965-.374 2.006-.611 2.422-1.77.113-.32.418-.616.9-.441-.398.473-.768.913-1.139 1.35.394.016.695-.077.993-.176.517-.174 1.022-.439 1.553-.51.732-.094 1.344-.29 1.729-.963.029-.047.14-.048.234-.08-.083.172-.153.308-.295.6.734-.25 1.292-.49 1.875-.623.774-.174 1.38-.745 2.246-.769.675-.02 1.445-.177 1.941-.79.352-.435.673-.895 1.008-1.342-.044-.052-.092-.106-.135-.158l-1.222.868a179.87 179.87 0 0 0-.061-.438l-.698.06a4.162 4.162 0 0 0-.04-.234c.452-.143.926-.242 1.353-.438 1.018-.467 1.42-1.6 2.316-2.208.006-.004-.043-.086-.077-.157-.488.161-.972.434-1.471.468-1.826.123-2.681 1.681-3.98 2.578-.04.591-.602.64-.94.929-.34.288-.56.137-.908-.076.256-.06.524-.052.562-.142.313-.751 1.133-.937 1.615-1.487.182-.21.333-.448.607-.82-2.078.591-3.973 1.036-5.08 2.932.664-.04 1.218-.562 1.889-.268-.701.255-1.443.374-2.132.633-.671.251-1.257.74-2.143.483a.48.48 0 0 1 .346-.215c1.29-.145 1.981-1.124 2.758-1.978.165-.182.23-.464.407-.627A111.96 111.96 0 0 1 85.1 42.52c.97-.83 1.956-1.643 2.934-2.462-.491-.015-.981.256-1.333-.36l-4.472 3.739a2.948 2.948 0 0 0-.084-.096c.256-.32.513-.64.773-.96-1.403.423-2.86.518-4.034 1.529-1.043.898-2.071 1.8-3.034 2.782-.423.43-.86.844-1.292 1.265.368-.696.803-1.303 1.27-1.886.116-.145.33-.21.499-.313.574-.358 1.071-.777 1.318-1.676-1.973.746-3.754 1.42-5.676 2.144.395-.628.47-1.32 1.283-1.4.16-.015.335-.227.439-.39.826-1.28 1.981-2.244 3.09-3.251.129-.117.214-.28.32-.422-.03-.052-.059-.105-.09-.157-.58.135-1.225.152-1.73.426-1.295.7-2.187 1.982-3.583 2.558-.418.98-1.348 1.47-2.057 2.171-.784.771-1.517 1.59-2.282 2.377-.198.204-.434.37-.656.553.2-.572.401-1.113.775-1.468 1.974-1.864 3.99-3.682 5.987-5.522.219-.2.394-.446.595-.677-.752 0-1.412-.04-2.067.016a1.835 1.835 0 0 0-.95.367 172.917 172.917 0 0 0-4.27 3.632c-.472.416-.861.925-1.287 1.394-.626.694-1.244 1.395-1.88 2.078-.155.165-.37.276-.661.485.062-.75.402-1.196.858-1.487.61-.392 1.034-.922 1.502-1.457 1.043-1.192 2.194-2.287 3.308-3.411.45-.456.922-.889 1.427-1.372-.707-.163-1.275-.114-1.761.266a624.469 624.469 0 0 0-4.47 3.54c-.488.391-.953.81-1.43 1.217l-.189-.17c.21-.319.366-.703.644-.945.87-.762 1.794-1.462 2.686-2.202.576-.48 1.132-.99 1.83-1.602-.843-.076-1.468-.164-2.094-.175-.256-.005-.572.087-.766.249-1.192.999-2.354 2.035-3.535 3.05-.223.19-.482.337-.727.503a14.482 14.482 0 0 1 3.752-3.788c-.024-.052-.047-.105-.073-.157h-2.392c-.166.282-.258.578-.457.75-1.643 1.41-3.308 2.8-4.966 4.192-.445.373-.895.737-1.341 1.105-.047-.05-.092-.103-.14-.156 1.668-2.374 4.192-3.886 6.323-5.99-.756-.082-1.373-.16-1.994-.208-.128-.01-.281.062-.394.14-.468.325-.92.668-1.384.999-.89.638-1.812 1.239-2.67 1.916-1.382 1.093-2.72 2.242-4.08 3.358-.285.232-.597.43-.895.642l-.128-.177c.676-.691 1.33-1.401 2.033-2.063.28-.264.733-.351.977-.634.897-1.044 2.023-1.794 3.126-2.582.612-.44 1.214-.897 1.819-1.345-.65-.18-1.217-.26-1.783-.248-.813.02-1.585.196-2.266.708-.712.534-1.475 1.006-2.213 1.505-.524.352-1.078.668-1.567 1.066-1.096.896-2.16 1.833-3.236 2.758-1.289 1.105-2.571 2.217-3.856 3.325-.111.095-.234.18-.35.27.937-1.33 2.161-2.348 3.3-3.458 1.157-1.125 2.436-2.086 3.634-3.144 1.209-1.067 2.602-1.925 4-2.936-.982-.38-1.723-.439-2.474.296-.718.699-1.603 1.226-2.384 1.865-1.858 1.52-3.693 3.065-5.547 4.59-.247.207-.538.36-.81.539.083-.324.266-.53.458-.727.674-.701 1.341-1.39 2.126-1.993 1.69-1.298 3.29-2.718 4.919-4.098.263-.226.484-.503.85-.889l-2.246-.133c-.354.33-.63.62-.937.866-1.242.998-2.509 1.963-3.738 2.978-.711.585-1.366 1.238-2.046 1.864-1.868 1.72-3.776 3.4-5.585 5.18-1.177 1.155-2.249 2.423-3.286 3.704-.374.461-.767.774-1.348.947.017-.228.073-.434.2-.58.551-.633 1.148-1.227 1.68-1.876 1.341-1.638 2.835-3.119 4.416-4.526 1.852-1.654 3.642-3.375 5.472-5.054a71.12 71.12 0 0 1 2.163-1.878c.578-.49 1.175-.958 1.762-1.438-1.488-.07-2.902-.184-4.383.176.41.484 1.047-.465 1.225.338-.568.509-1.102.982-1.636 1.462-1.65 1.483-3.305 2.96-4.945 4.456a615.23 615.23 0 0 0-4.595 4.257c-.423.398-.983.727-.84 1.431l-1.474.594a31.323 31.323 0 0 1-.086-.437l-6.384 1.78c.01.054.018.109.03.163l.48.145Zm-.26-16.68c-.006.068-.016.136-.024.206.296.049.594.151.887.136 2.38-.124 4.732.701 7.122.233.054-.01.112.03.17.032l6.24.217c1.232.044 2.46.118 3.69.128 1.678.013 3.36.097 5.029-.191.128-.021.274.08.411.086.727.032 1.455.33 2.182-.041.13-.066.33.02.501.028 1.266.07 2.531.139 3.795.203.113.007.269.03.333-.03.388-.364.912-.25 1.23-.111.95.417 1.886.039 2.82.09.97.052 1.954-.166 2.933-.187 1.038-.022 2.076.096 3.11.06.688-.026 1.46.223 2.045-.378.207-.214.563-.502.527-.698-.084-.463-.561-.28-.88-.28-2.189-.003-4.376.01-6.564.02-.545.003-1.092.047-1.634.014-.179-.012-.5-.236-.486-.31.045-.223.177-.48.357-.609.189-.136.475-.137.718-.196a3.136 3.136 0 0 0-.841-.067c-.921.028-1.84.081-2.758.09-.731.005-1.458-.068-2.19-.06-.992.012-1.988.06-2.98.102-.574.024-1.148.112-1.718.09-1.49-.056-2.96-.482-4.468-.248-.14.022-.29 0-.434-.023-1.365-.233-2.73-.19-4.095-.006-1.193.162-2.298-.187-3.392-.574-.144-.05-.351-.34-.318-.402.092-.174.284-.322.471-.405.1-.043.275.053.41.102.975.36 1.985.374 3.002.309.28-.018.559-.112.835-.108 1.337.025 2.672.049 4.008.111 1.152.056 2.315-.09 3.46.228.382.109.803.111 1.204.095 1.285-.048 2.567-.17 3.852-.186 2.567-.033 5.132-.014 7.699-.018.55-.002 1.114.057 1.646-.04 1.55-.289 3.097-.111 4.646-.06 1.724.057 3.464.188 5.174.04 2.042-.176 4.072-.236 6.11-.074.436.035 1.013-.215 1.296.401.023.051.153.078.232.075.65-.014 1.303-.045 1.956-.054.658-.01 1.315-.002 2.021-.002.037-.4.134-.755.642-.746.687.012 1.375.012 2.062.002 1.587-.02 3.176.013 4.758-.093 1.71-.115 3.43-.08 5.12-.559 1.11-.315 2.304-.338 3.46-.466.517-.055.822-.344 1.097-.744.219-.322 5.771-7.206 6.175-8.368-1.819-.208-3.566-.451-5.319-.594-1.756-.144-3.519-.21-5.278-.267-1.776-.058-3.555-.059-5.33-.095-.336-.007-.728.043-.987-.114-.275-.167-.42-.546-.739-.994-.661 0-1.479-.009-2.296 0-1.179.016-2.359.051-3.536.06-2.14.018-4.283.005-6.424.035-1.584.022-3.169.134-4.754.127-1.148-.005-2.297-.164-3.447-.209a48.526 48.526 0 0 0-2.865-.003c-1.755.037-3.504.08-5.257.3-1.502.19-3.04.086-4.566.032-1.54-.057-3.086.198-4.633.268-.488.023-1.233.06-1.412-.21-.255-.384-.496-.103-.723-.24l-.13-1.036-.776.086c-.097.3-.182.556-.296.905l-1.317-.596c-.192.474-.599.633-1.083.485-.365-.113-.55-.811-.415-1.317.127-.485.244-.974.383-1.53h-1.021c-.342 1.042-1.114 1.976-.39 3.202-.585.16-1.071.385-1.57.412-2.524.134-5.056.192-7.583.326-1.755.092-3.507.254-5.26.409-.245.02-.477.174-.718.268l.06.165 2.839-.201c-.09.186-.196.22-.303.235-1.306.174-2.616.326-3.92.524-2.055.315-4.106.655-6.157.992-2.664.437-5.325.89-7.99 1.316-.74.12-1.474.428-2.242-.017-.453-.262-.974-.134-1.453.102-.569.28-1.176.492-1.726.805-.76.438-1.48.945-2.262 1.448-.267-.32-.263-.675.083-1.01.206-.202.427-.395.668-.554 1.39-.92 2.94-1.462 4.533-1.895.44-.119.9-.261 1.33.095.07.058.26-.018.394-.044 1.067-.203 2.107-.504 3.195-.665 1.916-.284 3.827-.678 5.646-1.442.476-.2.637-.401.758-.953-.918 0-1.754-.027-2.587.007-1.01.04-2.017.131-3.027.196-.283.017-.58-.03-.85.038a236.96 236.96 0 0 0-5.129 1.303c-.638.17-1.278.373-1.87.658-.449.216-.822.586-1.274.92l-.425-.733c-.976.2-1.92.38-2.658 1.066a7.28 7.28 0 0 0 1.383-.425c.443-.182.647-.027.72.495-.334.162-.671.313-.997.483-.808.424-.99 1.042-.595 1.86.455.952 1.26 1.392 2.24 1.559.88.15 1.77.24 2.651.39.202.033.554.216.544.298-.061.546.37.545.663.607 1.353.285 2.711.552 4.073.786.77.131 1.553.18 2.33.284.38.049.752.141 1.13.205.289.05.641.205.858.094.347-.174.57-.175.852.072.09.08.267.113.395.095.476-.07.89-.047 1.247.364.122.141.43.155.657.166.833.043 1.669.06 2.504.091.491.02 1.034-.076 1.46.103.732.307 1.422.213 2.118.028.942-.253 1.708.141 2.494.47-.04.523-.283.608-.66.578a25.595 25.595 0 0 0-2.037-.094c-.746.001-1.493.084-2.238.08-.398-.004-.797-.14-1.198-.171-1.136-.087-2.276-.133-3.411-.228-.88-.074-1.775-.37-2.623-.26-1.39.179-2.657-.252-3.953-.503-1.139-.22-2.227-.701-3.355-.997-1.026-.27-2.077-.446-3.149-.669-.378.477-.686.563-1.26.324-.289-.12-.583-.234-.878-.343-.698-.26-1.402-.475-1.968-1.022-.359-.346-.838-.567-1.307-.873-.123 1.134.298 1.875 1.211 2.356l2.283 1.2c.465-.04.81-.15 1.118-.085.838.185 1.704.345 2.476.697 1.16.526 2.389.64 3.602.874 1.775.344 3.551.682 5.323 1.044.984.202 1.967.418 2.935.678 1.178.317 2.373.02 3.577.244 1.547.285 3.16.214 4.744.308.157.01.31.114.466.175-.017.084-.032.17-.045.254-2.312-.035-4.615-.431-6.924-.422Zm9.93 2.356c.169.043.335.115.504.125.716.036 1.431.038 2.147.09.178.01.347.152.52.234a7.992 7.992 0 0 0-.031.232c-.352.09-.711.282-1.049.251-2.111-.192-4.196-.097-6.26.395-.551.132-1.099.288-1.691.443.6.997-.636.842-.754 1.357.156.183.298.345.579.671-1.686.166-3.037.72-4.085 2.084.974-.26 1.834-.488 2.691-.723.076-.02.142-.093.208-.148 1.352-1.125 2.7-2.253 4.056-3.374.382-.314.785-.458 1.285.115-1.222 1.147-2.807 1.796-3.94 3 .413.523.388.656-.161.846a1.68 1.68 0 0 1-.507.112c-.912.028-1.4.685-1.938 1.3.86-.108 1.697-.277 2.53-.462a.455.455 0 0 0 .27-.193c.523-.909 1.426-1.43 2.175-2.096.923-.818 1.933-1.535 2.921-2.273.347-.26.741-.472 1.099.109-.173.128-.304.23-.44.32-.627.416-1.292.784-1.876 1.252a74.75 74.75 0 0 0-3.082 2.647c-.273.246-.455.595-.767 1.017-.727-.023-1.027.788-1.667 1.309 1.745.056 1.745.056 1.88.473-1.051.274-2.122.48-3.142.836-.947.329-1.927.535-2.864.895-1.007.385-2.037.708-3.082 1.068l.22.45-.465.571c1.284-.284 2.462-.68 3.648-1.049 1.26-.39 2.534-.735 3.788-1.137.857-.276 1.743-.477 2.262-1.387.426-.74.979-1.438 1.512-2.082 1.167-1.413 2.556-2.645 3.888-3.916a47.927 47.927 0 0 1 2.607-2.278c.292-.24.607-.688 1.23-.2-1.143 1.004-2.262 1.968-3.365 2.95-1.089.972-2.211 1.91-3.231 2.953-1.027 1.05-1.939 2.21-2.902 3.323l.149.171c.261-.153.552-.27.78-.464a74.657 74.657 0 0 0 2.2-1.942 986.007 986.007 0 0 0 4.704-4.374c.865-.808 1.715-1.63 2.584-2.432.122-.114.311-.157.588-.288-.108.709-.48 1.078-.853 1.421-2.772 2.548-5.551 5.083-8.329 7.625-.061.055-.104.131-.137.176l.252.75c-.963.208-2.044-.022-2.481 1.15 1.018-.158 2-.308 2.978-.47a.776.776 0 0 0 .381-.177 71.618 71.618 0 0 0 1.67-1.624c.995-1 1.954-2.035 2.972-3.011 1.587-1.521 3.207-3.008 4.815-4.51.465-.435.929-.876 1.403-1.325l-1.422-.535c-.261.566-.713.09-1.098.127-1.04.095-2.02-.146-3.03-.405-.86-.22-1.816-.076-2.733-.084-.03 0-.065.084-.101.13-.24-.081-.48-.207-.73-.236-1.268-.15-2.55-.227-3.814-.422-2.382-.364-4.784-.447-7.186-.529-.455-.015-1.057.23-1.337.02-.498-.375-.95-.058-1.408-.17-1.046-.253-2.066-.092-3.089.374l.88.827c.316-.15.615-.323.936-.437.433-.15.876-.315 1.326-.351.208-.017.444.252.666.393-.17.121-.322.29-.512.357-1.224.426-2.457.823-3.682 1.245-.16.055-.29.196-.483.332 1.021.446 1.926.615 2.865.057.343-.204.757-.288 1.145-.408.687-.213.985-.118 1.416.46-.92.277-1.865.45-2.706.842-.832.387-1.84.417-2.575 1.134.459.176.824.351 1.21.453.322.085.75.231.99.097 1.373-.775 3.087-.773 4.288-1.959.457-.45.716-.327 1.211.28.757-.412 1.754-.308 2.38-1.088.074-.092.317-.06.484-.068.39-.018.803.052 1.17-.051 1.501-.426 3.01-.778 4.576-.876.66-.04 1.31-.194 1.965-.295Zm58.509 13.053-.045.48c.697-.21 1.344-.444 2.008-.594.71-.162 1.265-.442 1.374-1.237-.467.027-.958-.006-1.417.1-.369.087-.718.314-1.042.53-.323.215-.602.496-.899.747l.52-.722-.587-.059c.41-.343.78-.674 1.175-.975.096-.071.302-.11.394-.055.585.349 1.197.17 1.616-.162.712-.567 1.74-.198 2.35-.924.786.34 1.45-.218 2.177-.286 1.11-.102 1.726-.901 2.476-1.654-1.947-.49-3.163.53-4.243 1.875l-.17-.183.618-1.211c-1.803.025-2.208.13-3.176 1.264-.3.352-.664.643-1 .963a2.189 2.189 0 0 1-.112-.118l1.094-1.388c-1.659-.219-2.875.33-3.742 1.713a11.088 11.088 0 0 0-.16-.185l.654-.974c-.905.19-1.671.31-2.409.525-.26.076-.484.354-.67.584-.284.35-.518.74-.86 1.238l.303-1.241-.18-.062-2.138 3.538c-.172-.153-.368-.33-.554-.5-3.666.85-10.136 3.01-10.71 3.606 1.19-.062 2.335-.127 3.48-.179.182-.008.423-.023.54.079.396.345.754.168 1.114-.015.306-.16.597-.353.894-.53.385-.229.738-.261 1.094.084.119.115.345.213.5.188 1.33-.218 2.653-.468 3.982-.702.385-.068.733-.172 1.17-.049.313.089.934.217 1.123-.434.032-.11.275-.204.43-.224.322-.04.648-.029.973-.032.308-.005.713-.122.905.029.392.304.715.126 1.058.034.413-.11.812-.265 1.242-.409-.007-.26-.2-.724.307-.672.695.074 1.252-.236 1.874-.42a74.086 74.086 0 0 1 4.718-1.185c.729-.164 1.148-.616 1.558-1.203-.716-.086-1.36-.163-1.948.231-.045.029-.111.029-.17.031-1.322.056-2.565.495-3.836.796-.59.139-1.256.222-1.528.925-.011.028-.101.026-.21.05l.093-.479c-1.657.415-3.307.782-4.927 1.252-1.615.465-3.186 1.083-4.822 1.488.498-.277 1.029-.447 1.537-.672.324-.144.617-.527.92-.523 1.227.012 2.19-.853 3.38-.923.832-.051 1.35-.645 1.904-1.17Zm-11.12 129.777c.084.658.686.242.905.503.16-.457.299-.863.44-1.27-.296.078-.602.225-.685.453-.142.389-.401.34-.682.337-.234-.229-.41-.468-.338-.837.068-.337-.038-.604-.437-.671-.5 2.132-.784 1.897-1.797 1.186.154-1.635-.024-1.867-1.408-1.969 0 .242.06.499-.011.71-.124.348-.331.665-.525 1.039.39.16.653.272.921.374 1.19.463 2.386.905 3.082 2.111.18.315.45.676.76.796.865.326 1.692.818 2.728.372.797-.343 1.035-.048.801.827.564.187 1.034.724 1.752.283.144-.089.636.12.76.32.473.759.74.969 1.565.845.4-.06.691.003 1.04.234.504.334 1 .842 1.734.549.092-.037.251.1.38.161.817.381 1.616.803 2.451 1.135.801.318 1.55.711 2.507.674.708-.029 1.435.458 2.15.719.78.285 1.531.811 2.417.284-.106-.587-.526-.944-.952-1.294-.146-.122-.33-.205-.461-.339-1.04-1.055-2.15-2.016-3.475-2.705-.454-.235-.898-.497-1.353-.736-.648-.345-1.304-.68-1.954-1.02-.025.159.002.239.059.278.251.181.64.331.33.72-.233.291-.512.11-.76-.076-.522-.398-1.056-.785-1.594-1.184-.031.044-.068.129-.13.176-.651.488-1.142.315-1.46-.435-.146-.354-.415-.664-.663-.967-.149-.182-.359-.314-.54-.471-.138-.118-.27-.242-.513-.458.182.582.352 1.001.436 1.437.074.393-.167.568-.569.52-.464-.057-.566-.368-.66-.771-.162-.684-.428-1.336-1.087-1.977.01.714.045 1.179.48 1.571.314.282.607.645.328 1.153-.347.063-.628.114-.876-.284-.299-.477-.652-.974-1.103-1.286-.367-.254-.603-.469-.664-.908-.024-.182-.168-.348-.25-.503-.82.062-1.066.303-.822 1.022.222.65-.06 1.093-.29 1.677-.716-.404-1.347-.859-2.05-1.118-.426-.155-.69-.329-.655-.743.029-.402.411-.423.738-.444Zm1.565 13.274c.234.157.47.317.715.484l2.44-1.273 1.25-2.212c-.169.043-.293.046-.38.103-.748.487-1.505.963-2.227 1.486-.615.446-1.186.951-1.779 1.43-.78.376-1.57.74-2.081 1.527.628-.162 1.25-.355 1.787-.683.195-.12.19-.566.275-.862ZM21.89 50.824c1.051-.391 2.083-.848 3.157-1.154.839-.24 1.202-.914 1.748-1.439-1.013-.044-1.877.362-2.77.665-.994.34-1.631 1.056-2.115 1.942l-.359-.167.814-1.012-.128-.148c-1.09.398-2.176.797-3.262 1.192.056.178.09.288.137.45-.594-.001-1.029.148-1.287.84.45-.071.81-.083 1.142-.188.98-.307 1.95-.652 2.923-.98Zm84.486-2.813c-.792.117-1.59.218-2.377.354-.543.093-1.632 1.006-1.841 1.475.321-.044.659-.12.999-.13 1.355-.045 2.415-.614 3.197-1.717.593-.63.335-1.328.249-2.177l-1.756 1.596c1.252.039 1.252.04 1.529.6Zm-31.43 21.2c-.243.262-.471.543-.734.782-.444.404-.9.798-1.377 1.165-.13.098-.35.074-.527.106.008-.2-.063-.493.04-.581.299-.252.655-.447 1.013-.613.259-.121.495-.195.31-.591-.373 0-.765.02-1.15-.016-.092-.01-.166-.203-.279-.35-.279.25-.552.5-.86.777-.137-.156-.266-.297-.436-.49l3.909-3.236-.704.04c.077-.118.101-.205.16-.248.484-.364.968-.73 1.47-1.069.184-.126.464-.313.618-.257.595.221.91-.187 1.301-.457.38-.264.773-.508 1.162-.755l2.634-1.662-.785-.363c.154-.091.215-.154.283-.163.785-.127 1.553-.3 2.242-.733.222-.14.418-.214.446-.554.01-.154.355-.317.578-.415.435-.191.887-.338 1.307-.561-2.045.11-2.543.336-3.29.913.279-.015.515-.026.75-.04.015.05.03.1.042.148-.383.134-.758.295-1.15.398-1.493.389-2.737 1.267-4.009 2.072-1.88 1.19-3.71 2.46-5.551 3.71-.258.173-.468.42-.673.61l.318.53c-.174.03-.406.146-.507.074-.475-.332-.729.085-.967.3-.474.425-.949.8-1.783.892.395-.604.886-.883 1.406-1.128.172-.081.347-.158.526-.223.71-.25.803-1.152 1.61-1.393.638-.19 1.222-.695 1.725-1.173a19.254 19.254 0 0 1 3.603-2.695c-.025-.053-.047-.107-.072-.16-.673.23-1.354.439-2.017.697-.612.242-1.193.567-1.81.795-.247.09-.552.019-.831.02l.012.016c.093-.26.182-.52.28-.799-.354-.08-.762-.174-1.168-.265 1.264-.17 2.49-.443 3.677-1.278-1.584-.283-2.662.397-3.665 1.293-.627.084-.983.519-1.323 1.038-.257-.105-.517-.214-.772-.317-1.181.893-1.355.969-2.163.88 1.528-1.216 2.978-2.373 4.576-3.644-1.13-.106-1.983-.024-2.755.595-1.493 1.19-3.016 2.34-4.52 3.52-.765.599-1.505 1.228-2.266 1.834-.191.151-.42.429-.66.12-.259-.333.042-.49.279-.678 1.683-1.318 3.354-2.652 5.029-3.982.494-.39.985-.783 1.453-1.249-.926.167-1.873-.162-2.759.6-1.708 1.47-3.547 2.792-5.33 4.175-.338.261-.662.554-1.297.274 2.065-1.653 4.055-3.245 6.08-4.868-.704 0-1.361-.04-2.01.02-.288.025-.591.206-.826.394-.828.664-1.614 1.385-2.455 2.033-.228.176-.593.174-.897.251-.038-.077-.076-.154-.116-.23.87-.744 1.743-1.487 2.685-2.292-1.582-.205-2.971-.168-4.061 1.055a4.026 4.026 0 0 1-.94.76c-.296.176-.652.25-.98.367l-.128-.23c.62-.56 1.244-1.116 2.028-1.82-1.86-.104-3.485.341-5.155.348a15.337 15.337 0 0 1-.13-.339c-.46-.163-.813-.3-1.176-.413-.3-.093-.607-.212-.916-.225-2.246-.097-4.49-.171-6.736-.25-.231-.01-.463-.006-.69-.024-.498-.037-.994-.084-1.58-.134.216-.463.657-.384 1.042-.358.34.023.673.124 1.013.158.122.012.253-.074.371-.273l-2.697-.195c-.244.317-.357.534-.53.668-.174.133-.412.183-.705.305-.05-.299-.101-.623-.17-1.05-1.793-.001-3.685.024-5.543.535 1.806.224 3.651-.188 5.418.522-1.98.293-3.991.234-5.985.49l4.617.174c1.517.056 3.018.471 4.549.214 1.466.61 3.068.264 4.581.723l.071.408 1.266.135c-.707.337-1.188.338-1.986.085l.184-.467c-1.318-.066-2.553-.128-3.788-.188l-.026.27 3.063.274c0 .07 0 .14-.002.209-1.396.007-2.791-.013-4.185.025-1.427.038-2.856.16-4.284.193-1.438.035-2.876.008-4.411.008.43 1.496.783 2.87 1.756 3.93l-.59.52.018-.016c-.563-.252-.635-.836-.88-1.304-.394-.757-.77-1.525-1.178-2.275a81.419 81.419 0 0 0-1.31-2.317c-.467-.795-1.015-1.547-1.418-2.371-.398-.814-1.112-.867-1.812-.876-.72-.012-1.452.102-2.168.227-1.154.204-1.537 1.17-.895 2.169.279.43.558.858.878 1.346l-.835.254c1.915 3.575 4.364 6.799 6.055 10.496l-.6-.483c-.496-1.318-1.44-2.355-2.212-3.5.45.954.993 1.855 1.553 2.74.18.284.408.537.612.804.014.444.147.803.462 1.164.53.608.972 1.293 1.409 1.975.158.25.189.581.28.875-.064.034-.13.068-.191.102-.48-.695-.976-1.379-1.438-2.085-.836-1.278-1.637-2.578-2.494-3.846-.227-.338-.596-.581-.881-.883a4.795 4.795 0 0 1-.47-.605c-.964-1.437-1.915-2.886-2.893-4.314-.17-.249-1.22-1.322-1.394-1.711-.382-.861-18.301-27.39-19.069-27.586-.27-.07-.26-1.005-.588-1.482-.5-.732-1.369-2.318-2.178-2.542-.777-.213-1.573-1.452 0-3.025.745-.746 2.726-2.195 3.72-2.52.655-.211 5.384-1.7 6.983-2.137 2.06-.561 4.139-1.09 6.238-1.468 2.503-.451 9.963-1.41 10.071-1.424 1.011-.137 2.022-.273 3.033-.416 1.05-.148 2.1-.318 3.155-.444.23-.027.477.09.699.136.193-.077.418-.227.654-.248.547-.056 1.098-.02 1.646-.073.792-.076 1.582-.055 2.383-.256.77-.194 1.632.012 2.451-.014.402-.014.797-.156 1.144-.23.853.006 12.779-.427 13.291-.436 1.212-.02 6.952-.379 8.403-.392.75-.004 24.618.935 27.697 1.077 1.715.078 3.423.31 5.139.463.308.028.621.019.929.007 1.272-.05 2.487.335 3.735.456.634.061 1.269.1 1.906.126.549.023 1.013.16 1.281.672-.468.698-1.132.364-1.693.373-.527.01-1.058-.153-1.587-.231-.428-.065-.858-.152-1.288-.166-.387-.012-.776.072-1.165.1-.261.018-.545.076-.786.006-1.317-.38-2.66-.422-4.015-.496-2.071-.113-4.133-.377-6.17-.575-.147.698-.264 1.268-.4 1.92a930.41 930.41 0 0 1 2.445-.184c.28-.38.437-1.102 1.162-1.21.191-.027.42.206.696.351-.323.362-.559.63-.916 1.034.454.031.756.06 1.06.069.308.01.619.002 1 .002.123-.132.267-.377.481-.487.151-.076.51-.04.579.068.595.967 1.549.815 2.444.817.628 0 1.258-.11 1.882-.083.41.02.9.025 1.087.554.028.075.092.173.158.19.664.19 1.325.423 2.003.52.517.073 1.001.175 1.506.324.867.255 1.798.312 2.71.376.209.014 3.478-5.684 4.101-6.863.759-1.427 1.639-2.79 2.474-4.174.529-.879-.138-1.332-1.106-2.784-.598-.613-1.028-2.492-.967-3.267.138-1.73.763-3.814 1.935-4.962 1.162-1.136 3.875-3.026 8.174-1.796.805.23 1.225.774 1.792 1.206.497.378.931.865 1.301 1.372.258.355.367.82.534 1.241.015.046-.046.134-.021.167.61.831.466 1.776.456 2.715-.003.346-.307 2.016-.616 2.235-.18.128-.243 2.541-4.358 3.995-3.025.845-3.912-.186-4.149.205-.964 1.602-1.926 3.206-2.921 4.79-.66 1.047-1.378 2.058-2.06 3.092-1.386 2.104-2.739 4.232-4.159 6.31-.714 1.044-1.58 1.98-2.31 3.012-.609.863-1.128 1.793-1.801 2.883 1.241-.232 2.305-.413 3.363-.634a84.136 84.136 0 0 0 3.457-.796c.69-.172 1.394-.343 2.029-.644.72-.34 1.418-.545 2.244-.247v-.948c1.123-.303 2.415-.49 2.638-2.062-.182.098-.376.202-.565.306-.376-.238-.258-.465-.081-.738.491-.746.952-1.509 1.446-2.295-.361-.348-.692-.323-.944.057-.388.586-1.011 1.014-1.045 1.845-.019.48-.688.587-.985.144-.226-.336-.437-.422-.824-.471-.238-.031-.427-.45-.716-.783-.425-.146-1.227.699-1.555-.483-.82.817-1.247-.122-1.826-.34-.218-.083-.216-.573.113-.605 1.146-.116 1.17-1.092 1.51-1.835.117-.252.223-.507.37-.839.857.643 1.771.69 2.7.747.568.036 1.135.22 1.681.399.852.281 5.901 2.272 6.733 3.17.432.467.664 1.216.759 1.871.081.567-.108 1.193-.27 1.768-.13.466-.392.895-.603 1.337-.059.12-.136.303-.235.326-1.424.354-1.873 1.672-2.613 2.675-.526.712-5.377 9.018-6.555 10.862-1.165 1.83-19.218 31.16-19.954 32.175-.268.37-2.475 4.315-3.394 5.863-.527.889-5.684 8.787-6.313 9.772-1.192 1.875-2.333 3.783-3.516 5.665-1.03 1.641-7.312 11.03-7.595 11.404-1.19 2.885-2.05 7.062-2.527 9.442-.092.45-1.243 6.823-1.36 7.702-.11.807-.501 4.043-.574 4.656a262.34 262.34 0 0 0-.756 7.242c-.16 1.786-.248 3.579-.354 5.369-.11 1.879-.222 3.76-.294 5.642-.043 1.213-.33 13.029-.309 13.692.045 1.347.081 2.697.168 4.04.026.422.666 5.365.909 6.166 1.004 3.319 2.192 5.509 2.376 5.646.978-.859 16.04 2.448 18.102 3.192 1.472.529 2.783 1.37 4.235 1.9 1.393.506 2.66 1.256 4 1.836 1.737.754 8.599 4.3 9.369 8.857.069 1.513-.571 2.784-1.453 3.936-.795 1.036-1.742 1.925-2.933 2.517-.677.337-1.36.667-2.044.987-.128.059-3.239 1.236-4.66 1.776-1.45.552-2.962.831-4.504 1.017-1.105.134-3.89.705-4.19.758-1.39.248-2.77.563-4.17.764-.992.144-2.012.109-3.014.219-1.483.16-5.07.507-5.386.518-1.875.057-3.748.1-5.627.031-1.518-.057-3.046.097-4.565.206-1.376.098-10.898-.213-13.236-.286-.147-.004-7.027-.632-8.95-.964-1.134-.194-7.67-2.196-9.096-2.599-1.119-.319-2.24-.643-3.354-.986-.297-.092-.574-.254-.852-.396-1.259-.64-4.171-2.011-4.349-2.101-.334-.167-1.853-1.41-2.258-2.087-.387-.647-.726-.848-1.08-2.453-.245-.586-.252-2.147 2.257-4.093.175-.216 3.27-2.676 4.693-3.47 1.573-.879 3.226-1.522 4.903-2.145 1.405-.522 2.73-1.248 4.13-1.78 1.364-.518 2.719-1.088 4.185-1.319.648-.102 12.456-4.078 13.093-4.319.21-.079.372-.396.468-.64.635-1.599 1.16-2.873 1.479-4.592.332-1.769 1.05-3.8 1.49-5.552.262-1.034.8-10.352.737-11.771-.088-1.966-.024-3.937-.024-5.907 0-.893.005-1.787.002-2.681-.019-3.185-.028-6.371-.061-9.558a290.688 290.688 0 0 0-.133-6.496c-.028-.758-.637-3.954-.727-4.865-.142-1.406-.266-2.816-.428-4.22a49.99 49.99 0 0 0-.41-2.7c-.252-1.446-.524-2.888-.787-4.331-.092-.508-2.28-7.408-2.578-7.869-.617-.953-1.164-1.955-1.817-2.88-.497-.706-2.368-3.906-2.858-4.791-.574-1.027-3.66-6.236-4.545-7.502-.752-1.073-1.306-2.241-1.916-3.385-.488-.915-1.046-1.793-1.559-2.696a2.497 2.497 0 0 1-.297-.868c.855.343 1.323 1.044 1.733 1.78 1.035 1.863 8.34 13.383 8.984 14.193.215.27.39.572.591.852.1.138 2 1.291 2.85 1.715.333.165.695.319 1.06.361 1.054.121 2.116.175 3.174.27.428.04.85.119 1.279.173.31.039.623.094.936.095 1.407.006 2.814-.001 4.22-.009.806-.005 1.628.084 2.41-.059 1.23-.228 2.522-.25 3.637-.999.416-.28.99-.317 1.472-.511 1.098-.434 2.195-.872 3.268-1.365.297-.136.554-.425.75-.701.527-.74 1.011-1.51 1.607-2.414-1.765.58-3.422.92-4.835 1.922-.467.33-1.013.546-1.533.797-.113.054-.261.035-.394.05-.33.04-.698.008-.992.134-1.105.478-2.189 1.001-3.275 1.516-.284.135-.536.35-.831.448-.18.061-.516.045-.6-.07-.17-.231 0-.413.276-.492.146-.042.274-.145.373-.329-.189 0-.378-.01-.562.003-.484.031-.966.082-1.45.106-.347.018-.718-.072-1.037.022-1.007.291-1.95-.026-2.9-.242-1.01-.231-2.035-.443-3.003-.798-.851-.313-1.645-.792-2.44-1.243-.398-.228-.489-.622-.27-1.114.777-.076 1.11.876 1.828.842-.158-.372-.365-.74-.466-1.135-.153-.615.093-1.12.563-1.537.571-.51 1.235-.927 1.566-1.681.054-.121.462-.15.68-.102.08.019.198.46.117.553-.469.54-.939 1.102-1.508 1.518-.518.376-.552.824-.38 1.284.096.262.463.423.753.666.295-.401.525-.812.847-1.123.32-.31.733-.52 1.062-.895-.16.059-.317.165-.473.163-.204-.001-.409-.09-.614-.142.095-.184.142-.463.293-.537.488-.243 1.001-.48 1.53-.595.862-.188 1.412-.74 1.907-1.395.07-.091.1-.211.176-.299.265-.313.623-.358.925-.134.324.239.128.503-.101.725-.052.052-.061.151-.13.333.525-.048 1.01-.024 1.45-.146 1.327-.368 2.695-.058 4.034-.311.557-.106 1.044-.195 1.464-.576.092-.083.23-.121.35-.163.377-.126.85-.143 1.12-.386.729-.656 1.751-.575 2.5-1.063 1.231-.8 2.794-.856 3.94-1.844.24-.208.72-.116 1.064-.235 1.028-.358 2.046-.752 3.172-1.17-.651-.307-1.335.217-1.88-.27l.405-.776 2.394.166-.087-.929-2.296.784c-.92.204-1.782.578-2.406 1.276-1.186 1.326-2.754 1.936-4.35 2.536-.56.211-1.12.436-1.658.702-1.066.532-2.27.435-3.38.769-.178.052-.42-.173-.642-.194-.832-.083-1.675-.093-2.501-.206a18.177 18.177 0 0 1-2.534-.51c-.662-.19-1.274-.55-1.92-.8-1.349-.524-2.282-1.576-3.212-2.597-.376-.414-.552-1.033-.748-1.584-.192-.539-.461-.88-1.076-.956-3.903-1.622-6.998-4.334-7.234-4.629-.212-.259-1.038-1.17-1.308-1.371-.842-.628-3.285-4.488-1.306-9.016 2.476-5.67 11.433-4.97 12.227-4.873 2.407.3 4.17 1.063 4.985 1.527.626.354 1.186.822 1.788 1.215.822.535 1.66 1.048 2.487 1.572.123.078.255.146.361.243.482.457.921.565 1.66.396 5.628.05 9.303 3.026 9.352 3.055.518.287 1.177 1.332 1.918.8.47-.337 1.12-.407 1.398-1.046.088-.198.398-.308.623-.43.34-.182.693-.336 1.042-.502a10.647 10.647 0 0 1-.033-.191l-1.093-.214c.772-.73 1.923-.265 2.58-1.053-1.433-.31-3.061.17-3.648 1.065l-.66-.416c.144-.25.24-.602.47-.781.764-.6 1.581-1.129 2.364-1.703.153-.11.25-.293.29-.598-.725.309-1.463.594-2.174.931-1.267.602-2.521 1.231-3.777 1.858-.334.166-.646.38-.988.531-.14.063-.329.01-.498.01a4.807 4.807 0 0 0-.038-.174c.104-.066.207-.133.309-.2.328-.216.668-.413.976-.652.403-.31.617-.827 1.301-.803.3.011.637-.447.914-.734a8.15 8.15 0 0 0 1.128-1.451c-.379.172-.76.338-1.13.523-.454.224-.882.523-1.358.684-.437.149-.922.158-1.408.233.04-.131.087-.275.163-.505-.695.295-.814 1.264-1.773 1.202.027-.267.054-.522.087-.828-.366.048-.744.1-1.264.17.466-.57.94-.824 1.507-.707.629.131 1.043.046 1.498-.503.497-.606 1.227-1.02 1.853-1.522.083-.067.146-.161.283-.316h-.802c.574-.416 1.57-.297 1.542-1.524-1.251.91-2.858 1.147-3.709 2.643a322.4 322.4 0 0 1-.599-.043c-.238-.728.392-.868.734-1.092.82-.531 1.691-.984 2.559-1.434.33-.17.7-.281 1.065-.355.48-.099.752-.369.927-.95-1.388-.036-2.687.329-4.024.27.695-.228 1.377-.482 2.13-.502.24-.008.522-.052.702-.188.767-.584 1.37-1.358 2.34-1.72.365-.137.55-.76.734-1.313-.774.245-1.55.49-2.46.775l.803.149c-.022.044-.04.114-.064.119-.487.066-.98.2-1.46.168-.62-.042-1.105.192-1.57.532-1.259.914-2.531 1.812-3.767 2.76-.562.43-1.048.963-1.73 1.6.594 0 1 .013 1.409-.005.404-.017.824-.12 1.084.327l-.017-.02Z" clip-rule="evenodd"/>
  <defs>
    <radialGradient id="a" cx="0" cy="0" r="1" gradientTransform="rotate(53.696 -18.12 48.86) scale(75.5363)" gradientUnits="userSpaceOnUse">
      <stop stop-color="#D2D2D2"/>
      <stop offset=".576" stop-color="#1F1F1F"/>
      <stop offset="1" stop-color="#222"/>
    </radialGradient>
  </defs>
</svg>
