<svg width="256" height="256" viewBox="0 0 256 256" fill="none" xmlns="http://www.w3.org/2000/svg">
<g clip-path="url(#clip0_404_57)">
<rect width="256" height="256" rx="35" fill="white"/>
<path d="M24.1434 155.413C24.0846 148.968 24.0303 143.011 23.9804 137.543C23.7352 132.076 23.5007 127.781 23.2769 124.658C23.053 121.535 22.9385 119.681 22.9331 119.095C22.9135 116.946 23.5846 115.573 24.9464 114.975C26.1129 114.378 28.0632 114.067 30.7975 114.042C35.4848 113.999 37.849 116.224 37.8899 120.716C37.9078 122.669 38.025 124.817 38.2417 127.158C38.2613 129.307 38.2765 130.967 38.2871 132.139C38.2978 133.311 38.3103 134.678 38.3246 136.24C38.337 137.607 38.4445 138.681 38.6469 139.46C38.6541 140.241 38.8565 141.021 39.2542 141.798C39.4567 142.578 39.755 143.161 40.1491 143.548C40.5433 143.935 41.1328 144.32 41.9176 144.704C42.5053 144.894 43.1906 145.083 43.9736 145.271C44.7548 145.264 45.7313 145.255 46.9032 145.244L198.948 143.857C205.393 143.798 208.591 141.132 208.543 135.859L208.019 78.4394L208.011 77.5605C207.943 70.139 205.159 64.6954 199.659 61.2298C198.087 60.2675 193.576 58.1602 186.124 54.9077C178.67 51.46 174.648 49.4458 174.056 48.8652C172.483 47.7077 171.689 46.25 171.673 44.4923C171.664 43.5158 171.849 42.4398 172.229 41.2644C172.414 40.0908 173.086 38.8151 174.245 37.4373C175.209 36.0612 176.57 35.3652 178.328 35.3491C179.89 35.3349 194.068 37.1587 220.86 40.8207C222.229 41.0035 223.306 41.2867 224.091 41.6701C224.874 41.8583 225.564 42.6333 226.163 43.9951C226.955 45.1598 227.36 46.8163 227.38 48.9646C227.385 49.5506 227.312 52.1881 227.159 56.8771C227.202 61.5645 227.161 67.8151 227.037 75.629C226.913 83.443 226.798 92.2335 226.692 102C226.586 111.767 226.494 123.097 226.416 135.989C226.534 148.879 226.649 161.574 226.764 174.073L226.908 189.893C226.938 193.213 225.391 194.887 222.266 194.916C219.727 194.939 218.06 194.173 217.264 192.618C216.272 190.869 215.162 186.972 213.935 180.929C213.729 179.759 213.526 178.882 213.325 178.297C212.112 173.816 208.869 171.6 203.596 171.648L202.717 171.656L45.1064 173.094C43.9346 173.105 43.0566 173.21 42.4725 173.411C41.6913 173.418 41.0095 173.62 40.4271 174.015C39.843 174.216 39.456 174.61 39.266 175.198C38.879 175.592 38.6881 176.082 38.6935 176.668C38.5035 177.256 38.413 178.038 38.4219 179.014C38.2337 179.797 38.145 180.775 38.1557 181.947C38.1646 182.923 38.1753 184.095 38.1877 185.462C38.2002 186.829 38.2136 188.294 38.2278 189.857C37.8836 194.938 35.4654 197.499 30.9734 197.54C26.0908 197.585 23.6317 195.654 23.596 191.748C23.5889 190.967 23.6705 189.208 23.8409 186.472C23.8159 183.738 23.8779 179.831 24.0269 174.751C24.1741 169.476 24.2201 163.811 24.1648 157.757L24.1434 155.413Z" fill="#2F2F2F"/>
</g>
<defs>
<clipPath id="clip0_404_57">
<rect width="256" height="256" fill="white"/>
</clipPath>
</defs>
</svg>
